<svg xmlns="http://www.w3.org/2000/svg" width="474.755" height="1153.396" fill="none" viewBox="457.07 181.511 474.755 1153.396" id="mountaineer-looking-in-binoculars"><path fill="#F7ABA6" d="M577.778 1167.93H637.254L628.443 1231.82H568.967L577.778 1167.93Z"></path><path fill="#FDD39B" d="M573.372 1200.98H632.849L628.443 1231.82H568.967L573.372 1200.98Z"></path><path fill="#2A5F49" d="M746.31 473.979C730.211 455.957 735.239 427.617 756.556 416.234V416.234C769.708 409.21 785.78 410.695 797.423 420.009L800.262 422.28L836.558 470.478L894.882 536.299L888.975 541.883C864.628 564.903 826.081 563.277 803.759 538.289L746.31 473.979Z"></path><path fill="#CD8C38" d="M725.366 723.515L716.555 834.207L714.352 846.323L706.642 949.855L643.862 1194.37H560.154L596.501 949.855L597.602 778.035L597.465 738.384L597.602 723.515H725.366Z"></path><path fill="#F7ABA6" d="M756.205 1167.93H815.681V1231.82H756.205V1167.93Z"></path><path fill="#FDD39B" d="M756.205 1200.98H785.943H815.681V1231.82H756.205V1200.98Z"></path><path fill="#7A431C" d="M797.855 1219.34C795.949 1222.95 792.199 1225.21 788.115 1225.21H780.311C776.728 1225.21 773.507 1223.03 772.177 1219.7V1219.7C770.846 1216.38 767.625 1214.19 764.042 1214.19H754.003L749.598 1282.48H783.191L799.987 1273.67H816.784L839.913 1275.87L850.377 1282.48H883.97L885.614 1270.97C887.19 1259.94 880.279 1249.47 869.515 1246.58L840.13 1238.7C831.395 1236.35 824.98 1228.91 823.953 1219.92L822.96 1211.24C822.579 1207.9 819.754 1205.38 816.395 1205.38H809.203C806.753 1205.38 804.503 1206.74 803.359 1208.91L797.855 1219.34Z"></path><path fill="#2E1503" d="M750.699 1264.86C753.52 1267.68 757.346 1269.26 761.335 1269.26H885.597V1282.48H843.699C842.75 1279.84 840.243 1278.08 837.435 1278.08H837.075C834.715 1278.08 832.506 1279.24 831.169 1281.18L830.276 1282.48H812.378C810.298 1279.71 807.034 1278.08 803.567 1278.08H799.508C795.788 1278.08 792.249 1279.68 789.799 1282.48H749.598L750.699 1264.86Z"></path><path fill="#69340E" d="M864.214 1245.16C863.27 1246.25 862.496 1247.5 861.942 1248.89 859.946 1253.88 855.114 1257.15 849.74 1257.15H846.522C839.831 1257.15 834.406 1262.57 834.406 1269.26H885.791C886.464 1258.88 879.721 1249.32 869.515 1246.58L864.214 1245.16zM753.578 1220.8H761.672C764.358 1220.8 766.774 1222.44 767.772 1224.93 769.435 1229.09 773.462 1231.82 777.94 1231.82H793.294C797.55 1231.82 801.425 1229.36 803.248 1225.52L808.386 1214.67C809.479 1212.36 811.805 1210.89 814.358 1210.89H822.912C822.38 1207.73 819.636 1205.38 816.396 1205.38H809.205C806.754 1205.38 804.504 1206.74 803.36 1208.91L797.856 1219.34C795.95 1222.95 792.2 1225.21 788.116 1225.21H780.312C776.73 1225.21 773.508 1223.03 772.178 1219.7 770.847 1216.38 767.626 1214.19 764.044 1214.19H754.004L753.578 1220.8z"></path><path fill="#F6E5C8" d="M823.423 1215.3H815.681C813.856 1215.3 812.377 1216.78 812.377 1218.6 812.377 1220.42 813.856 1221.9 815.681 1221.9H824.269C824.134 1221.25 824.028 1220.59 823.951 1219.92L823.926 1219.7H815.681C815.073 1219.7 814.58 1219.21 814.58 1218.6 814.58 1217.99 815.073 1217.5 815.681 1217.5H823.674L823.423 1215.3zM825.68 1226.31H817.884C816.059 1226.31 814.58 1227.79 814.58 1229.61 814.58 1231.44 816.059 1232.92 817.884 1232.92H830.181C829.496 1232.23 828.859 1231.49 828.272 1230.72H817.884C817.276 1230.72 816.783 1230.22 816.783 1229.61 816.783 1229.01 817.276 1228.51 817.884 1228.51H826.804C826.389 1227.8 826.014 1227.07 825.68 1226.31z"></path><path fill="#69340E" fill-rule="evenodd" d="M806.871 1208.69C806.871 1222.37 807.376 1233.02 814.461 1240.69C821.519 1248.32 834.863 1252.74 859.641 1254.94L859.836 1252.75C835.051 1250.54 822.512 1246.15 816.078 1239.19C809.671 1232.26 809.074 1222.54 809.074 1208.69H806.871ZM751.801 1250.54C762.142 1250.54 770.525 1258.92 770.525 1269.26H772.728C772.728 1257.71 763.358 1248.34 751.801 1248.34V1250.54Z" clip-rule="evenodd"></path><path fill="#CD8C38" d="M818.435 769.224L814.58 721.864L694.526 722.965L694.605 723.516H597.602L597.465 738.385L597.602 778.036L596.501 949.856L560.154 1194.37H643.862L706.642 949.856L714.352 846.323L714.8 843.857L729.772 925.625L742.989 1194.37H828.899L836.608 925.625L818.435 769.224Z"></path><path stroke="#495A27" stroke-width="13.217" d="M705.541 313.24C681.818 313.24 662.586 332.472 662.586 356.195V404.657"></path><path fill="#8E4B0C" fill-rule="evenodd" d="M719.303 807.908C719.377 806.999 718.7 806.201 717.79 806.127C716.881 806.053 716.083 806.73 716.009 807.639L711.604 861.608C711.582 861.875 711.625 862.131 711.719 862.363L705.006 949.585L642.58 1192.72H560.154V1196.02H643.861H645.143L645.462 1194.78L708.242 950.267L708.278 950.127L708.289 949.983L715.469 856.688L728.127 925.815L741.338 1194.45L744.638 1194.29L731.422 925.544L731.416 925.435L731.396 925.328L716.425 843.56L716.392 843.562L719.303 807.908Z" clip-rule="evenodd"></path><path fill="#DB552B" d="M535.924 319.848V405.758H751.8V405.745C775.015 405.16 793.654 386.158 793.654 362.803C793.654 339.448 775.015 320.446 751.8 319.862V319.848H535.924Z"></path><path fill="#C04923" d="M791.209 377.122H544.734V405.758H751.8V405.745C770.024 405.286 785.428 393.477 791.209 377.122Z"></path><path fill="#7A431C" d="M588.791 319.849H555.094C563.937 311.646 575.778 306.632 588.791 306.632C616.164 306.632 638.354 328.822 638.354 356.195V405.759H625.137V356.195C625.137 336.121 608.864 319.849 588.791 319.849Z"></path><circle cx="539.228" cy="362.803" r="42.955" fill="#D04219"></circle><path stroke="#495A27" stroke-width="13.217" d="M704.439 313.24C728.163 313.24 747.394 332.472 747.394 356.195V406.86"></path><circle cx="539.228" cy="362.803" r="29.738" stroke="#DC5531" stroke-width="4.406"></circle><circle cx="539.229" cy="362.804" r="12.116" stroke="#DC5531" stroke-width="4.406"></circle><rect width="167.414" height="237.905" x="583.285" y="406.86" stroke="#000" stroke-width="2.203"></rect><rect width="15.42" height="85.91" x="511.693" y="478.452" fill="#7A431C" rx="2.203"></rect><path fill="#2B3B0A" d="M489.664 427.787C489.664 415.621 499.526 405.759 511.692 405.759H751.8V509.291H498.475C493.609 509.291 489.664 505.346 489.664 500.48V427.787Z"></path><rect width="187.24" height="154.198" x="478.65" y="562.159" fill="#2B3C0A" rx="22.028"></rect><path fill="#495927" d="M518.301 405.759H751.8V736.182H533.721C525.204 736.182 518.301 729.278 518.301 720.762V405.759Z"></path><path fill="#3A4A16" d="M518.301 405.759H573.371C578.238 405.759 582.183 409.704 582.183 414.57V736.182H535.923C526.191 736.182 518.301 728.292 518.301 718.559V405.759Z"></path><path fill="#304207" d="M528.886 734.721C522.656 732.005 518.301 725.791 518.301 718.56V683.001L543.334 657.969L558.91 673.545L573.371 682.213V689.923L528.886 734.721Z"></path><path fill="#2B3B0A" d="M544.734 405.759H551.343V468.539C551.343 470.364 549.863 471.843 548.039 471.843V471.843C546.214 471.843 544.734 470.364 544.734 468.539V405.759Z"></path><path fill="#202E05" d="M500.678 562.159H505.083V606.215C505.083 607.432 504.097 608.418 502.881 608.418V608.418C501.664 608.418 500.678 607.432 500.678 606.215V562.159Z"></path><rect width="13.217" height="8.811" x="542.531" y="601.81" fill="#B1320A"></rect><path fill="#D34316" d="M571.17 619.432C571.17 612.133 565.252 606.215 557.953 606.215H540.33C533.031 606.215 527.113 612.133 527.113 619.432V670.097H571.17V619.432Z"></path><path fill="#DB552B" d="M571.17 670.097H533.722V619.432C533.722 612.133 540.428 606.215 548.701 606.215H556.191C565.663 606.215 571.17 612.133 571.17 619.432V670.097Z"></path><rect width="17.623" height="13.217" x="540.33" y="590.796" fill="#D04219" rx="2.203"></rect><path fill="#2B3B0A" d="M524.91 630.447H573.372V685.517C573.372 691.6 568.441 696.531 562.358 696.531H549.141H535.924C529.841 696.531 524.91 691.6 524.91 685.517V630.447Z"></path><path fill="#241B14" d="M701.136 297.82H654.877V307.733C654.877 309.905 654.862 312.025 654.847 314.088C654.705 334.43 654.601 349.173 669.195 353.04L672.416 308.879C679.065 309.437 683.382 315.121 683.382 322.051C683.52 323.722 683.547 325.182 683.474 326.457H684.614C685.831 326.457 686.768 325.455 687.021 324.265C687.666 321.219 689.773 320.566 692.208 319.811C694.47 319.109 697.015 318.32 698.933 315.443C703.339 308.834 701.136 297.82 701.136 297.82Z"></path><path fill="#F7ABA6" fill-rule="evenodd" d="M667.133 297.82H701.135C701.135 297.82 703.338 308.834 698.932 315.442C697.014 318.32 694.469 319.109 692.206 319.811C689.772 320.566 687.665 321.219 687.019 324.265C686.767 325.455 685.829 326.457 684.613 326.457H683.473C683.546 325.182 683.519 323.722 683.381 322.051C683.381 314.752 678.591 308.834 671.331 308.834C667.197 308.834 663.864 310.753 661.76 313.753C661.76 313.753 661.76 313.753 661.76 313.753C660.169 316.022 659.281 318.908 659.281 322.051C659.281 328.868 663.458 334.479 669.923 335.192C670.045 335.878 670.121 336.572 670.149 337.27L663.687 425.583H727.569L730.631 383.73H735.421C743.435 383.73 750.114 377.59 750.786 369.604L756.274 304.437C757.435 290.644 746.826 278.682 732.993 278.188L692.032 276.725C679.327 276.271 668.695 285.647 667.133 297.82Z" clip-rule="evenodd"></path><path fill="#BD4C00" d="M654.877 283.478C654.877 260.195 672.182 240.54 695.278 237.591L706.364 236.176C706.55 236.152 706.737 236.152 706.922 236.176L718.008 237.591C741.104 240.54 758.41 260.195 758.41 283.478V295.617C758.41 296.833 757.423 297.82 756.207 297.82H657.08C655.863 297.82 654.877 296.833 654.877 295.617V283.478Z"></path><path fill="#D56011" fill-rule="evenodd" d="M747.395 297.82C748.611 297.82 749.598 296.834 749.598 295.618V282.436C749.598 259.604 732.939 240.187 710.372 236.715L706.978 236.193C706.88 236.178 706.782 236.169 706.684 236.167C706.558 236.165 706.432 236.174 706.307 236.193L702.913 236.715C680.346 240.187 663.688 259.604 663.688 282.436V295.618C663.688 296.834 664.674 297.82 665.89 297.82H747.395ZM747.395 295.618V282.436C747.395 263.424 735.266 246.897 717.852 240.834C727.805 247.203 734.178 258.326 734.178 270.662V295.618H747.395ZM679.107 270.662C679.107 258.326 685.48 247.203 695.433 240.834C678.019 246.897 665.89 263.424 665.89 282.436V295.618H679.107V270.662ZM681.31 270.662V295.618H694.527V255.972C694.527 250.056 696.873 244.482 700.896 240.378C689.151 245.653 681.31 257.412 681.31 270.662ZM712.389 240.378C724.134 245.653 731.975 257.412 731.975 270.662V295.618H718.758V255.972C718.758 250.056 716.412 244.482 712.389 240.378ZM716.555 295.618V255.972C716.555 248.837 712.769 242.256 706.643 238.662C700.516 242.256 696.73 248.837 696.73 255.972V295.618H716.555Z" clip-rule="evenodd"></path><rect width="107.938" height="17.623" x="652.674" y="286.806" fill="#9F4000" rx="2.203"></rect><rect width="13.217" height="8.811" x="659.281" y="291.212" fill="#FBBC91" rx="2.203"></rect><circle cx="722.062" cy="320.95" r="3.304" fill="#491A11"></circle><path fill="#491A11" fill-rule="evenodd" d="M728.988 312.355C724.232 309.684 718.307 310.774 714.8 314.82 714.401 315.28 713.718 315.4 713.222 315.047V315.047C712.726 314.695 712.607 314.003 712.999 313.537 717.165 308.577 724.329 307.212 730.067 310.434L730.88 310.891C731.411 311.189 731.599 311.86 731.301 312.39 731.004 312.921 730.332 313.109 729.802 312.812L728.988 312.355zM721.394 353.214C721.824 352.783 722.522 352.783 722.952 353.214 728.543 358.805 737.609 358.805 743.201 353.214 743.631 352.783 744.328 352.783 744.759 353.214 745.189 353.644 745.189 354.341 744.759 354.771 738.307 361.223 727.846 361.223 721.394 354.771 720.964 354.341 720.964 353.644 721.394 353.214z" clip-rule="evenodd"></path><path fill="#CE5E56" d="M694.527 372.716C702.257 379.743 712.551 383.258 722.964 382.425L734.178 381.527V389.237L725.728 392.993C711.055 399.514 694.527 388.773 694.527 372.716Z"></path><path fill="#2A5F49" d="M834.64 406.026C834.536 400.067 839.192 395.106 845.146 394.832L884.82 393.006C890.788 392.731 895.886 397.263 896.313 403.221L903.684 506.162C905.422 530.432 887.157 551.515 862.887 553.253L837.238 555.09L834.64 406.026Z"></path><path fill="#F7ABA6" d="M824.494 297.82C824.494 296.604 825.48 295.617 826.697 295.617H835.508C836.04 295.617 836.563 295.648 837.078 295.709C837.279 295.65 837.491 295.617 837.711 295.617H855.334C855.865 295.617 856.389 295.648 856.904 295.709C857.104 295.65 857.317 295.617 857.536 295.617H866.348C873.647 295.617 879.565 301.535 879.565 308.834V388.455H845.421L844.508 372.447C844.046 371.789 843.621 371.103 843.24 370.389C836.859 367.344 832.576 361.126 832.016 354.065L828.276 306.934L835.085 307.289L834.912 306.591L835.508 306.691V302.226H828.9C826.467 302.226 824.494 300.253 824.494 297.82Z"></path><rect width="47.109" height="16.188" x="838.318" y="381.954" fill="#2A5F49" rx="2.203" transform="rotate(-3.121 838.318 381.954)"></rect><path fill="#CE5E56" fill-rule="evenodd" d="M851.977 351.289C851.175 348.59 849.229 345.988 845.074 344.569 844.786 344.471 844.62 344.164 844.709 343.873V343.873C844.797 343.582 845.106 343.417 845.394 343.515 849.913 345.047 852.127 347.929 853.033 350.975 853.885 353.842 853.568 356.809 853.027 358.864 852.95 359.158 852.641 359.322 852.35 359.233V359.233C852.059 359.145 851.896 358.838 851.973 358.543 852.472 356.622 852.75 353.889 851.977 351.289zM826.697 295.067C825.176 295.067 823.943 296.3 823.943 297.82 823.943 300.558 826.162 302.777 828.9 302.777H868.551V302.777C868.551 302.168 868.057 301.675 867.449 301.675H857.536C855.407 301.675 853.681 299.949 853.681 297.82 853.681 296.908 854.421 296.168 855.334 296.168H866.348C873.343 296.168 879.014 301.839 879.014 308.834V313.791C879.014 314.095 879.26 314.341 879.565 314.341V314.341C879.869 314.341 880.115 314.095 880.115 313.791V308.834C880.115 301.231 873.951 295.067 866.348 295.067H826.697zM831.102 296.168H826.697C825.784 296.168 825.045 296.908 825.045 297.82 825.045 299.949 826.771 301.675 828.9 301.675H832.393C831.27 300.767 830.552 299.377 830.552 297.82 830.552 297.2 830.757 296.628 831.102 296.168zM835.508 301.675H843.407C842.284 300.767 841.566 299.377 841.566 297.82 841.566 297.2 841.771 296.628 842.116 296.168H833.305C832.393 296.168 831.653 296.908 831.653 297.82 831.653 299.949 833.379 301.675 835.508 301.675zM854.421 301.675H846.522C844.393 301.675 842.667 299.949 842.667 297.82 842.667 296.908 843.407 296.168 844.319 296.168H853.131C852.785 296.628 852.58 297.2 852.58 297.82 852.58 299.377 853.298 300.767 854.421 301.675z" clip-rule="evenodd"></path><mask id="a" fill="#fff"><path fill-rule="evenodd" d="M845.147 394.831C839.193 395.105 834.537 400.066 834.641 406.026L835.746 469.397L800.263 422.28L797.425 420.009C785.782 410.695 769.71 409.21 756.558 416.234C735.241 427.617 730.213 455.957 746.312 473.979L803.761 538.289C824.643 561.665 859.726 564.595 884.098 546.03C887.646 543.671 890.824 540.816 893.538 537.571L894.884 536.299L894.712 536.105C901.038 527.855 904.486 517.347 903.685 506.162L896.314 403.221C895.887 397.263 890.789 392.731 884.821 393.005L845.147 394.831Z" clip-rule="evenodd"></path></mask><path fill="#183D2E" d="M834.641 406.026L831.337 406.083L831.337 406.083L834.641 406.026ZM845.147 394.831L844.995 391.531L844.995 391.531L845.147 394.831ZM835.746 469.397L833.106 471.385L839.227 479.512L839.049 469.339L835.746 469.397ZM800.263 422.28L802.903 420.292L802.652 419.96L802.327 419.7L800.263 422.28ZM797.425 420.009L799.489 417.429L799.489 417.429L797.425 420.009ZM756.558 416.234L755.001 413.319L755.001 413.319L756.558 416.234ZM746.312 473.979L743.848 476.18L743.848 476.18L746.312 473.979ZM803.761 538.289L806.225 536.087L806.225 536.087L803.761 538.289ZM884.098 546.03L882.269 543.278L882.18 543.337L882.095 543.401L884.098 546.03ZM893.538 537.571L891.268 535.17L891.128 535.303L891.004 535.451L893.538 537.571ZM894.884 536.299L897.154 538.7L899.479 536.502L897.357 534.107L894.884 536.299ZM894.712 536.105L892.09 534.094L890.432 536.257L892.239 538.296L894.712 536.105ZM903.685 506.162L906.981 505.926L906.981 505.926L903.685 506.162ZM896.314 403.221L899.61 402.985L899.61 402.985L896.314 403.221ZM884.821 393.005L884.669 389.705L884.669 389.705L884.821 393.005ZM837.945 405.968C837.872 401.797 841.131 398.324 845.299 398.132L844.995 391.531C837.255 391.887 831.202 398.336 831.337 406.083L837.945 405.968ZM839.049 469.339L837.945 405.968L831.337 406.083L832.442 469.454L839.049 469.339ZM797.624 424.267L833.106 471.385L838.385 467.409L802.903 420.292L797.624 424.267ZM795.361 422.589L798.199 424.86L802.327 419.7L799.489 417.429L795.361 422.589ZM758.114 419.148C770.101 412.747 784.749 414.1 795.361 422.589L799.489 417.429C786.815 407.289 769.319 405.673 755.001 413.319L758.114 419.148ZM748.776 471.778C734.103 455.352 738.686 429.523 758.114 419.148L755.001 413.319C731.796 425.711 726.322 456.562 743.848 476.18L748.776 471.778ZM806.225 536.087L748.776 471.778L743.848 476.18L801.297 540.49L806.225 536.087ZM882.095 543.401C859.081 560.933 825.946 558.163 806.225 536.087L801.297 540.49C823.341 565.167 860.371 568.258 886.1 548.658L882.095 543.401ZM891.004 535.451C888.491 538.455 885.551 541.096 882.269 543.278L885.927 548.781C889.741 546.246 893.156 543.178 896.073 539.691L891.004 535.451ZM892.614 533.898L891.268 535.17L895.808 539.972L897.154 538.7L892.614 533.898ZM892.239 538.296L892.411 538.49L897.357 534.107L897.185 533.914L892.239 538.296ZM900.389 506.398C901.13 516.746 897.944 526.461 892.09 534.094L897.334 538.116C904.133 529.249 907.842 517.948 906.981 505.926L900.389 506.398ZM893.018 403.457L900.389 506.398L906.981 505.926L899.61 402.985L893.018 403.457ZM884.973 396.306C889.15 396.114 892.719 399.286 893.018 403.457L899.61 402.985C899.055 395.239 892.427 389.347 884.669 389.705L884.973 396.306ZM845.299 398.132L884.973 396.306L884.669 389.705L844.995 391.531L845.299 398.132Z" mask="url(#a)"></path><path stroke="#000" stroke-width="2.203" d="M711.049 600.954H748.619V620.768L730.858 641.4H711.049V600.954Z"></path><path stroke="#000" stroke-width="2.203" d="M717.656 592.142H755.226V611.956L737.466 632.588H717.656V592.142Z"></path><path fill="#2B3B0A" d="M712.15 599.852H751.924V621.177L733.567 642.501H712.15V599.852Z"></path><path fill="#2B3B0A" d="M728.303 602.36L780.314 565.983V547.167H810.909V562.562C810.909 567.898 808.491 572.946 804.335 576.291L728.303 637.483V602.36Z"></path><path fill="#2A5F49" d="M665.889 388.136C662.239 388.136 659.28 391.095 659.28 394.745L657.629 404.656C657.303 406.609 655.714 408.105 653.745 408.313L615.284 412.367C607.25 412.367 600.011 417.215 596.952 424.644L587.714 447.078C586.972 448.881 586.638 450.825 586.735 452.771L596.952 609.52L593.196 694.328C593.196 701.628 599.113 716.356 606.413 716.356H795.657C803.033 716.356 815.591 701.507 815.48 694.131L805.045 597.404V437.697C804.835 423.647 793.386 412.367 779.334 412.367H741.955C737.511 412.367 733.763 409.058 733.212 404.649L731.974 394.745C731.974 391.095 729.015 388.136 725.365 388.136H665.889Z"></path><path stroke="#183D2E" stroke-width="3.304" d="M716.555 414.57H727.569L731.974 610.621L734.129 620.678C738.289 640.089 737.47 660.167 731.843 679.064C729.431 687.164 726.701 695.189 724.977 703.463L722.062 717.458"></path><path fill="#2B3B0A" d="M756.205 410.164H793.653C797.303 410.164 800.262 413.123 800.262 416.773V416.773H756.205V410.164Z"></path><path fill="#2B3B0A" d="M778.234 414.57H793.654C803.387 414.57 811.277 422.46 811.277 432.192V549.676H787.046C782.179 549.676 778.234 545.731 778.234 540.865V414.57zM598.338 642.011L631.543 618.787C643.329 610.544 650.349 597.067 650.349 582.685V544.964H680.944V589.556C680.944 602.895 674.901 615.515 664.51 623.878L598.338 677.134V642.011z"></path><path fill="#263408" d="M608.224 635.097L598.338 642.012V677.135L623.719 656.708C624.007 656.113 624.16 655.457 624.16 654.787V639.503C624.16 637.07 622.187 635.097 619.754 635.097H608.224Z"></path><path fill="#2B3B0A" d="M579.98 643.909C579.98 641.475 581.953 639.503 584.386 639.503H615.348C617.781 639.503 619.754 641.475 619.754 643.909V659.192C619.754 660.247 619.375 661.267 618.687 662.067L602.715 680.621C601.878 681.593 600.659 682.152 599.376 682.152H584.386C581.953 682.152 579.98 680.18 579.98 677.746V643.909Z"></path><path fill="#235842" d="M590.994 509.291L586.588 456.423L687.918 497.176C689.019 499.746 693.425 510.172 693.425 540.131C693.425 540.131 627.34 539.029 590.994 509.291Z"></path><rect width="18.782" height="14.827" x="778.467" y="314.087" fill="#C4C4C4"></rect><rect width="32.868" height="26.688" fill="#C4C4C4" transform="matrix(-1 0 0 1 818.377 308.156)"></rect><path fill="#CF450B" d="M861.941 302.226H820.088V341.877H861.941V302.226Z"></path><ellipse cx="779.639" cy="321.501" fill="#C4C4C4" rx="5.869" ry="7.413"></ellipse><path fill="#CF450B" d="M760.611 306.632H731.975C729.541 306.632 727.569 308.604 727.569 311.037V330.863C727.569 333.296 729.541 335.268 731.975 335.268H760.611V306.632Z"></path><path fill="#AFA9A9" d="M758.408 306.632H736.38C733.947 306.632 731.974 308.604 731.974 311.037V330.863C731.974 333.296 733.947 335.268 736.38 335.268H758.408V306.632Z"></path><path fill="#CF450B" d="M804.668 302.226H738.583C734.934 302.226 731.975 305.185 731.975 308.835V335.268C731.975 338.918 734.934 341.877 738.583 341.877H804.668V302.226Z"></path><ellipse cx="799.162" cy="322.051" fill="#CF450B" rx="16.521" ry="19.825"></ellipse><path fill="#973004" d="M846.521 302.226H800.262V341.877H846.521V341.834C837.91 341.153 831.101 332.557 831.101 322.051C831.101 311.546 837.91 302.95 846.521 302.269V302.226Z"></path><ellipse cx="803.566" cy="322.051" fill="#BE3902" rx="16.521" ry="19.825"></ellipse><ellipse cx="804.117" cy="321.5" fill="#F6E5C9" rx="12.886" ry="15.603"></ellipse><ellipse cx="856.435" cy="322.051" fill="#CF450B" rx="16.521" ry="19.825"></ellipse><ellipse cx="860.84" cy="322.051" fill="#BE3902" rx="16.521" ry="19.825"></ellipse><ellipse cx="861.392" cy="321.5" fill="#F6E5C9" rx="12.886" ry="15.603"></ellipse><path fill="#CF450B" d="M731.975 322.051C731.975 326.918 730.003 329.761 727.57 329.761C725.137 329.761 723.164 326.918 723.164 322.051C723.164 317.185 725.137 313.24 727.57 313.24C730.003 313.24 731.975 317.185 731.975 322.051Z"></path><path stroke="#183D2E" stroke-linecap="round" stroke-width="2.203" d="M672.498 390.339V407.961M694.527 390.339V407.961"></path><path fill="#2B3B0A" d="M626.238 407.961H668.092C680.258 407.961 690.12 417.824 690.12 429.99V534.257C690.12 541.556 684.203 547.474 676.903 547.474H650.347V435.441C650.347 427.927 646.517 420.932 640.188 416.883L626.238 407.961Z"></path><path fill="#2B3B0A" d="M681.311 533.522H659.282V562.159V562.159C671.448 562.159 681.311 552.297 681.311 540.131V533.522Z"></path><path fill="#7A431C" d="M612.818 1219.34C610.912 1222.95 607.162 1225.21 603.077 1225.21H595.274C591.691 1225.21 588.47 1223.03 587.139 1219.7V1219.7C585.809 1216.38 582.588 1214.19 579.005 1214.19H568.966L564.561 1282.48H598.154L614.95 1273.67H631.747L654.876 1275.87L665.34 1282.48H698.933L700.577 1270.97C702.153 1259.94 695.242 1249.47 684.478 1246.58L655.093 1238.7C646.358 1236.35 639.942 1228.91 638.916 1219.92L637.923 1211.24C637.542 1207.9 634.717 1205.38 631.357 1205.38H624.166C621.716 1205.38 619.466 1206.74 618.322 1208.91L612.818 1219.34Z"></path><path fill="#2E1503" d="M565.662 1264.86C568.483 1267.68 572.309 1269.26 576.298 1269.26H700.56V1282.48H658.662C657.713 1279.84 655.206 1278.08 652.398 1278.08H652.038C649.678 1278.08 647.469 1279.24 646.132 1281.18L645.239 1282.48H627.341C625.261 1279.71 621.996 1278.08 618.53 1278.08H614.471C610.751 1278.08 607.212 1279.68 604.762 1282.48H564.561L565.662 1264.86Z"></path><path fill="#1A4E38" fill-rule="evenodd" d="M859.511 254.009C860.71 253.802 861.85 254.606 862.056 255.805L866.386 280.902C866.593 282.101 865.789 283.241 864.59 283.448 863.391 283.654 862.251 282.85 862.045 281.651L857.715 256.554C857.508 255.355 858.312 254.215 859.511 254.009zM894.341 262.151C895.218 262.994 895.246 264.388 894.403 265.265L876.754 283.627C875.911 284.504 874.516 284.532 873.639 283.689 872.762 282.845 872.735 281.451 873.578 280.574L891.226 262.212C892.069 261.335 893.464 261.308 894.341 262.151zM910.196 284.416C910.45 285.606 909.691 286.776 908.501 287.029L883.593 292.339C882.403 292.592 881.233 291.834 880.979 290.644 880.725 289.454 881.484 288.284 882.674 288.03L907.583 282.721C908.773 282.467 909.943 283.226 910.196 284.416z" clip-rule="evenodd"></path><path fill="#2A5F49" d="M595.121 472.082C580.39 460.621 577.59 439.456 588.835 424.56V424.56C600.546 409.044 622.828 406.421 637.822 418.793L759.51 519.203V519.203C742.475 547.987 704.196 555.559 677.484 535.431L647.515 512.846 595.121 472.082zM586.588 689.922C586.588 687.489 588.56 685.517 590.994 685.517H813.479C815.912 685.517 817.884 687.489 817.884 689.922V718.559C817.884 720.992 815.912 722.965 813.479 722.965H590.994C588.56 722.965 586.588 720.992 586.588 718.559V689.922z"></path><path stroke="#673505" stroke-width="3.304" d="M566.764 1162.43H653.775M742.988 1162.43H830"></path><path fill="#183D2E" fill-rule="evenodd" d="M586.588 684.415C586.588 683.807 587.081 683.314 587.689 683.314H814.58C815.188 683.314 815.681 683.807 815.681 684.415C815.681 685.024 815.188 685.517 814.58 685.517H587.689C587.081 685.517 586.588 685.024 586.588 684.415Z" clip-rule="evenodd"></path><path fill="#2A5F49" d="M716.984 394.235C718.103 388.364 723.701 384.456 729.598 385.43L768.805 391.905C774.674 392.874 778.713 398.328 777.928 404.224L765.073 500.839C761.851 525.058 739.534 542.03 715.334 538.665L690.122 535.159L716.984 394.235Z"></path><path fill="#2A5F49" fill-rule="evenodd" d="M729.598 385.43C723.701 384.456 718.103 388.363 716.984 394.234L702.087 472.385L637.788 418.935C622.83 406.5 600.516 409.086 588.797 424.611C577.574 439.48 580.368 460.605 595.071 472.045L647.515 512.847L677.927 535.765C704.266 555.613 742.046 547.84 758.409 519.205L758.302 519.116C761.794 513.775 764.175 507.588 765.073 500.838L777.928 404.224C778.713 398.327 774.674 392.873 768.805 391.904L729.598 385.43Z" clip-rule="evenodd"></path><path fill="#2B3B0A" d="M582.184 406.86C582.184 405.035 583.663 403.556 585.488 403.556H665.891C669.541 403.556 672.499 406.515 672.499 410.164V410.164H585.488C583.663 410.164 582.184 408.685 582.184 406.86V406.86Z"></path><path fill="#69340E" d="M679.177 1245.16C678.233 1246.25 677.459 1247.5 676.904 1248.89 674.909 1253.88 670.077 1257.15 664.703 1257.15H661.485C654.793 1257.15 649.369 1262.57 649.369 1269.26H700.754C701.427 1258.88 694.684 1249.32 684.478 1246.58L679.177 1245.16zM568.539 1220.8H576.632C579.319 1220.8 581.735 1222.44 582.733 1224.93 584.396 1229.09 588.423 1231.82 592.901 1231.82H608.255C612.511 1231.82 616.386 1229.36 618.208 1225.52L623.347 1214.67C624.44 1212.36 626.766 1210.89 629.319 1210.89H637.873C637.34 1207.73 634.597 1205.38 631.357 1205.38H624.166C621.715 1205.38 619.465 1206.74 618.321 1208.91L612.817 1219.34C610.911 1222.95 607.161 1225.21 603.077 1225.21H595.273C591.691 1225.21 588.469 1223.03 587.139 1219.7 585.808 1216.38 582.587 1214.19 579.005 1214.19H568.965L568.539 1220.8z"></path><path fill="#F6E5C8" d="M638.385 1215.3H630.644C628.819 1215.3 627.34 1216.78 627.34 1218.6 627.34 1220.42 628.819 1221.9 630.644 1221.9H639.232C639.097 1221.25 638.991 1220.59 638.914 1219.92L638.889 1219.7H630.644C630.036 1219.7 629.543 1219.21 629.543 1218.6 629.543 1217.99 630.036 1217.5 630.644 1217.5H638.637L638.385 1215.3zM640.643 1226.31H632.847C631.022 1226.31 629.543 1227.79 629.543 1229.61 629.543 1231.44 631.022 1232.92 632.847 1232.92H645.143C644.459 1232.23 643.822 1231.49 643.235 1230.72H632.847C632.239 1230.72 631.745 1230.22 631.745 1229.61 631.745 1229.01 632.239 1228.51 632.847 1228.51H641.766C641.352 1227.8 640.977 1227.07 640.643 1226.31z"></path><path fill="#69340E" fill-rule="evenodd" d="M621.834 1208.69C621.834 1222.37 622.339 1233.02 629.424 1240.69C636.482 1248.32 649.826 1252.74 674.604 1254.94L674.799 1252.75C650.014 1250.54 637.475 1246.15 631.041 1239.19C624.634 1232.26 624.037 1222.54 624.037 1208.69H621.834ZM566.764 1250.54C577.105 1250.54 585.488 1258.92 585.488 1269.26H587.691C587.691 1257.71 578.321 1248.34 566.764 1248.34V1250.54Z" clip-rule="evenodd"></path><rect width="11.014" height="50.665" x="689.02" y="619.432" fill="#1A4E38" rx="2.203" transform="rotate(30 689.02 619.432)"></rect><rect width="11.014" height="50.665" fill="#1A4E38" rx="2.203" transform="scale(-1 1) rotate(30 -1543.153 -1135.623)"></rect><path fill="#F7ABA6" d="M775.894 319.932C775.048 324.914 774.432 331.086 773.903 338.732C774.344 348.349 771.973 357.896 767.066 366.2L765.881 368.206V382.462L731.893 379.026L732.442 364.056H732.516L734.179 329.761L734.188 328.952C734.182 328.856 734.178 328.758 734.178 328.66C734.178 326.835 734.197 325.005 734.255 323.195L734.276 321.412C734.288 320.37 734.373 319.345 734.525 318.343C734.873 314.149 735.552 310.199 736.838 306.836C738.032 303.716 739.093 301.008 741.888 298.922C744.722 296.806 748.938 295.617 752.902 295.617C753.864 295.617 754.753 295.925 755.477 296.447C758.341 295.436 761.446 295.096 764.705 295.688C765.561 295.844 766.315 296.238 766.909 296.789C769.482 295.802 772.302 295.36 775.33 295.635C776.392 295.732 777.332 296.198 778.034 296.896C778.687 296.472 779.375 296.086 780.098 295.74C782.481 294.598 785.104 294.951 787.927 295.331C788.922 295.466 789.943 295.603 790.986 295.679C791.922 295.748 792.759 296.335 793.066 297.222L793.655 298.922C793.655 300.746 792.173 302.21 790.353 302.349C787.668 302.554 785.312 303.012 783.905 303.686C782.064 304.568 780.563 305.971 779.264 308.42C777.904 310.984 776.791 314.653 775.894 319.932Z"></path><path fill="#CE5E56" d="M753.726 296.168H751.827L747.634 296.587C743.675 296.983 740.277 299.576 738.849 303.289C736.843 308.503 735.645 313.984 735.304 319.559C734.147 338.502 731.974 368.544 731.974 373.818H730.873C730.873 368.5 733.049 338.407 734.205 319.492C734.552 313.803 735.775 308.212 737.821 302.894C739.398 298.792 743.152 295.929 747.525 295.491L751.772 295.067H758.408V295.085C758.645 295.073 758.884 295.067 759.123 295.067H766.118C766.559 295.067 766.959 295.239 767.255 295.52C768.381 295.224 769.559 295.067 770.765 295.067H777.132C777.642 295.067 778.097 295.297 778.4 295.66C779.393 295.366 780.425 295.165 781.488 295.069L781.538 295.62V295.067H791.451C792.971 295.067 794.204 296.3 794.204 297.82V298.626C794.204 300.918 792.346 302.777 790.054 302.777C786.065 302.777 782.247 304.145 780.413 307.474C777.171 313.36 773.829 324.224 774.36 341.302C774.369 341.606 774.132 341.866 773.828 341.877V341.877C773.524 341.888 773.269 341.646 773.259 341.342C772.723 324.109 776.09 313.039 779.449 306.943C781.559 303.113 785.87 301.675 790.054 301.675C791.738 301.675 793.103 300.31 793.103 298.626V297.82C793.103 296.908 792.363 296.168 791.451 296.168H781.561C780.607 296.257 779.678 296.435 778.784 296.695C778.784 296.703 778.784 296.711 778.784 296.719H778.703C773.235 298.342 769.078 303.021 768.247 308.84L767.843 311.671C767.8 311.972 767.521 312.182 767.22 312.139V312.139C766.918 312.096 766.709 311.817 766.752 311.516L767.157 308.684C767.975 302.956 771.794 298.256 776.946 296.168H770.765C769.735 296.168 768.727 296.293 767.76 296.529C767.767 296.591 767.76 296.465 767.76 296.529L767.067 296.719C762.965 297.971 759.676 301.262 758.527 305.571L756.88 311.748C756.801 312.042 756.499 312.217 756.206 312.139V312.139C755.912 312.06 755.737 311.758 755.815 311.465L757.463 305.287C758.58 301.097 761.559 297.793 765.367 296.168H759.123C753.671 296.168 748.831 299.657 747.107 304.829L744.787 311.79C744.69 312.079 744.379 312.235 744.09 312.139V312.139C743.801 312.042 743.646 311.731 743.742 311.442L746.062 304.481C747.336 300.658 750.176 297.682 753.726 296.168Z"></path><rect width="50.466" height="16.901" x="725.541" y="371.128" fill="#2A5F49" rx="2.203" transform="rotate(8.085 725.541 371.128)"></rect><path stroke="#183D2E" stroke-linejoin="round" stroke-width="3.304" d="M637.753 419.076L701.993 472.878L716.984 394.235C718.103 388.364 723.7 384.456 729.598 385.43L768.805 391.905C774.673 392.874 778.712 398.328 777.928 404.224L765.073 500.839C763.798 510.423 759.532 518.872 753.344 525.375C735.978 548.745 702.343 554.164 678.358 536.09L647.515 512.847L595.021 472.005C580.346 460.588 577.557 439.503 588.759 424.662"></path><path fill="#BD4C00" d="M709.883 237.891C709.924 237.681 709.946 237.464 709.946 237.242C709.946 235.418 708.467 233.938 706.642 233.938C704.817 233.938 703.338 235.418 703.338 237.242C703.338 237.464 703.36 237.681 703.401 237.891H709.883Z"></path><path fill="#CE5E56" fill-rule="evenodd" d="M668.12 316.787C668.594 316.406 669.287 316.482 669.668 316.956L675.522 324.241C675.903 324.716 675.827 325.409 675.353 325.79C674.879 326.171 674.185 326.095 673.804 325.621L667.951 318.335C667.57 317.861 667.646 317.168 668.12 316.787Z" clip-rule="evenodd"></path><path fill="#CB712F" d="M673.601 752.703C624.037 793.455 597.604 771.797 597.604 771.797V722.965H812.379C798.06 742.79 701.136 730.063 673.601 752.703Z"></path><path fill="#8E4B0C" fill-rule="evenodd" d="M647.865 760.021C642.158 765.89 634.265 770.746 624.036 771.361C622.822 771.434 621.834 770.441 621.834 769.224V769.224C621.834 768.008 622.823 767.03 624.037 766.946C632.809 766.342 639.631 762.169 644.706 756.95C649.434 752.087 652.578 746.376 654.252 742.019C654.688 740.883 655.916 740.23 657.079 740.588V740.588C658.242 740.945 658.899 742.179 658.471 743.318C656.631 748.213 653.153 754.582 647.865 760.021Z" clip-rule="evenodd"></path><path fill="#FBF5EC" fill-rule="evenodd" d="M853.997 327.731C853.681 327.548 853.573 327.144 853.755 326.828L861.906 312.711C862.088 312.395 862.493 312.287 862.809 312.469L865.479 314.011C865.795 314.194 865.904 314.598 865.721 314.914L857.571 329.031C857.388 329.347 856.984 329.455 856.668 329.273L853.997 327.731zM861.628 332.136C861.312 331.954 861.204 331.55 861.386 331.234L869.537 317.117C869.719 316.801 870.123 316.692 870.439 316.875L873.11 318.417C873.426 318.599 873.535 319.003 873.352 319.319L865.202 333.436C865.019 333.752 864.615 333.861 864.299 333.678L861.628 332.136zM796.724 327.731C796.408 327.548 796.3 327.144 796.482 326.828L804.632 312.711C804.815 312.395 805.219 312.287 805.535 312.469L808.206 314.011C808.522 314.194 808.63 314.598 808.448 314.914L800.297 329.031C800.115 329.347 799.711 329.455 799.395 329.273L796.724 327.731zM804.355 332.136C804.039 331.954 803.93 331.55 804.113 331.234L812.263 317.117C812.446 316.801 812.85 316.692 813.166 316.875L815.837 318.417C816.153 318.599 816.261 319.003 816.079 319.319L807.928 333.436C807.746 333.752 807.342 333.861 807.026 333.678L804.355 332.136z" clip-rule="evenodd"></path><path stroke="#BE3902" stroke-width="1.101" d="M731.975 306.632V335.268M727.568 313.24V329.761"></path><path fill="#2B3B0A" d="M789.248 533.522H811.276V562.159V562.159C799.11 562.159 789.248 552.297 789.248 540.131V533.522Z"></path><path fill="#B1320A" d="M543.082 594.1C543.082 593.796 542.835 593.549 542.531 593.549 542.227 593.549 541.98 593.796 541.98 594.1V600.708C541.98 601.012 542.227 601.259 542.531 601.259 542.835 601.259 543.082 601.012 543.082 600.708V594.1zM547.488 594.1C547.488 593.796 547.241 593.549 546.937 593.549 546.633 593.549 546.386 593.796 546.386 594.1V600.708C546.386 601.012 546.633 601.259 546.937 601.259 547.241 601.259 547.488 601.012 547.488 600.708V594.1zM551.342 593.549C551.647 593.549 551.893 593.796 551.893 594.1V600.708C551.893 601.012 551.647 601.259 551.342 601.259 551.038 601.259 550.792 601.012 550.792 600.708V594.1C550.792 593.796 551.038 593.549 551.342 593.549zM556.299 594.1C556.299 593.796 556.052 593.549 555.748 593.549 555.444 593.549 555.197 593.796 555.197 594.1V600.708C555.197 601.012 555.444 601.259 555.748 601.259 556.052 601.259 556.299 601.012 556.299 600.708V594.1z"></path><path stroke="#183D2E" stroke-linecap="round" stroke-width="3.304" d="M836.609 472.944L847.623 488.364"></path></svg>