<svg xmlns="http://www.w3.org/2000/svg" width="1043.684" height="1257.146" fill="none" viewBox="302.704 121.857 1043.684 1257.146" id="mountaineer-looking-at-direction-board"><path fill="#2A5F49" d="M742.246 453.618C746.842 449.609 753.776 449.916 758 454.315L790.479 488.132C794.788 492.619 794.716 499.73 790.317 504.13L714.534 579.912C705.608 588.839 691.135 588.839 682.209 579.912L660.022 557.725C650.662 548.365 651.185 533.037 661.161 524.337L742.246 453.618Z"></path><path fill="#F7ABA6" d="M532.7 263.588C518.066 263.065 506.083 275.109 506.68 289.74L504.395 418.047H572.751L575.037 374.619H580.007C588.323 374.619 599.824 368.248 600.522 359.962L601.645 292.342C602.85 278.03 591.841 265.618 577.488 265.106L532.7 263.588Z"></path><path fill="#241B14" fill-rule="evenodd" d="M548.717 362.298C567.438 358.412 566.999 346.187 566.322 327.282C566.185 323.457 566.038 319.358 566.038 315V285.286H498.714C498.609 285.811 498.637 286.782 498.773 288.115V315C498.773 317.254 498.758 319.454 498.743 321.594C498.575 345.498 498.46 361.951 520.488 363C520.488 363 539.505 365.041 548.717 362.298Z" clip-rule="evenodd"></path><path fill="#F7ABA6" d="M823.024 428.281L828.132 428.619L828.693 429.36C832.479 434.356 835.033 440.173 836.149 446.341C836.669 449.214 835.902 452.171 834.052 454.43L826.828 463.249C822.353 468.713 814.043 468.85 809.39 463.538L806.564 460.312L787.313 466.007L823.024 428.281Z"></path><path fill="#F7ABA6" d="M771.414 437.17L769.864 443.21L761.574 452.143L794.867 481.302L798.364 479.707C805.934 476.254 811.756 469.847 814.47 461.982L832.336 441.494C833.529 440.125 833.799 438.18 833.024 436.538L826.51 422.739C825.079 419.707 822.389 417.457 819.151 416.584L817.041 416.015C815.387 415.568 814.96 413.42 816.319 412.376L837.464 396.13C839.442 394.611 840.185 391.973 839.293 389.645C838.028 386.345 834.072 385.011 831.066 386.871L795.057 409.157L784.505 417.295C778.047 422.275 773.439 429.271 771.414 437.17Z"></path><rect width="53.141" height="18.261" x="767.117" y="441.708" fill="#2A5F49" rx="2.286" transform="rotate(45 767.117 441.708)"></rect><path fill="#DB7D76" d="M563.04 375.571H575.287L574.144 390.428L562.2 377.489C561.524 376.757 562.044 375.571 563.04 375.571Z"></path><path fill="#2A5F49" d="M507.196 382.429C503.276 382.429 500.098 385.499 500.098 389.286L500.098 400.714C500.098 403.239 498.051 405.286 495.527 405.286H458.005C441.458 405.286 428.098 418.803 428.293 435.35L431.408 700.143C431.408 707.717 437.764 723 445.603 723H648.853C656.776 723 661.12 707.592 661.001 699.938L650.826 558.896L656.65 431.569C656.425 416.99 644.129 405.286 629.037 405.286H589.657C587.141 405.286 585.098 403.253 585.086 400.737L585.028 389.286C585.028 385.499 581.851 382.429 577.931 382.429H507.196Z"></path><path fill="#235842" d="M649.572 549.286C629.382 526.048 603.858 519.571 594.715 443L651.858 502.429L649.572 549.286Z"></path><path fill="#2A5F49" d="M416.668 428.686C425.541 410.495 447.427 402.869 465.683 411.606V411.606C484.601 420.659 492.156 443.657 482.292 462.165L401.893 613.018L393.76 608.465C365.2 592.478 354.088 556.974 368.438 527.557L416.668 428.686Z"></path><path fill="#2A5F49" d="M497.142 649.683C500.358 654.966 498.787 661.849 493.598 665.214L456.712 689.137C451.512 692.509 444.571 691.122 441.067 686.009L376.504 591.809C362.23 570.984 367.542 542.53 388.367 528.257L412.967 511.397L497.142 649.683Z"></path><path stroke="#000" stroke-width="2.286" d="M432.551 700.143L432.551 700.129L429.436 435.336C429.249 419.426 442.094 406.429 458.005 406.429H495.527C498.683 406.429 501.241 403.87 501.241 400.714L501.241 389.286C501.241 386.167 503.869 383.572 507.196 383.572H577.931C581.257 383.572 583.885 386.167 583.885 389.286L583.885 389.292L583.943 400.743C583.959 403.888 586.512 406.429 589.657 406.429H629.037C643.529 406.429 655.274 417.65 655.507 431.553L649.684 563.417L649.681 563.485L649.686 563.553L659.859 699.989C659.909 703.646 658.888 709.232 656.892 713.889C655.893 716.22 654.678 718.249 653.291 719.677C651.91 721.098 650.43 721.857 648.853 721.857H445.603C444.03 721.857 442.425 721.09 440.849 719.65C439.276 718.213 437.819 716.183 436.572 713.87C434.067 709.22 432.551 703.692 432.551 700.143Z"></path><path fill="#2A5F49" d="M722.855 531.303C733.244 549.64 727.158 572.915 709.123 583.821V583.821C689.739 595.542 664.479 588.307 654.239 568.102L597.807 456.75C588.78 438.938 595.956 417.181 613.809 408.233V408.233C630.968 399.634 651.856 405.99 661.318 422.689L722.855 531.303Z"></path><path stroke="#000" stroke-width="2.286" d="M711.287 511.571L661.269 422.773C651.842 406.037 630.938 399.649 613.766 408.254V408.254C595.936 417.19 588.767 438.918 597.778 456.71L654.954 569.607C663.988 587.445 685.737 594.632 703.621 585.69V585.69C706.434 584.284 709.053 582.518 711.412 580.437L727.287 566.429"></path><path fill="#F7ABA6" d="M672.431 1193.86H610.716L615.288 1260.14H677.002L672.431 1193.86Z"></path><path fill="#FDD39B" d="M613.002 1228.14H674.716L672.431 1260.14H615.288L613.002 1228.14Z"></path><path fill="#7A431C" d="M656.218 1247.19C654.24 1250.94 650.349 1253.29 646.111 1253.29H638.013C634.296 1253.29 630.954 1251.02 629.573 1247.57V1247.57C628.193 1244.12 624.85 1241.86 621.133 1241.86H606.145V1312.71H641.002L658.43 1303.57H675.859L699.859 1305.86L710.716 1312.71H745.573L747.279 1300.77C748.914 1289.33 741.743 1278.46 730.574 1275.46L700.084 1267.28C691.02 1264.85 684.363 1257.13 683.297 1247.8L682.268 1238.79C681.872 1235.33 678.941 1232.71 675.455 1232.71H667.993C665.45 1232.71 663.116 1234.12 661.929 1236.37L656.218 1247.19Z"></path><path fill="#2E1503" d="M606.145 1294.43C609.072 1297.36 614.184 1299 618.324 1299H747.262V1312.71H703.787C702.802 1309.97 700.201 1308.14 697.287 1308.14H696.914C694.465 1308.14 692.173 1309.35 690.785 1311.37L689.859 1312.71H671.287C669.129 1309.84 665.742 1308.14 662.145 1308.14H657.933C654.073 1308.14 650.401 1309.81 647.859 1312.71H606.145V1294.43Z"></path><path fill="#69340E" d="M725.074 1273.99C724.094 1275.12 723.292 1276.42 722.716 1277.86 720.645 1283.03 715.631 1286.43 710.056 1286.43H706.716C699.773 1286.43 694.145 1292.06 694.145 1299H747.463C748.161 1288.22 741.165 1278.31 730.574 1275.46L725.074 1273.99zM606.145 1248.71H618.671C621.459 1248.71 623.966 1250.41 625.002 1253 626.727 1257.31 630.905 1260.14 635.552 1260.14H651.483C655.9 1260.14 659.921 1257.6 661.812 1253.61L667.144 1242.35C668.278 1239.96 670.691 1238.43 673.341 1238.43H682.216C681.664 1235.15 678.817 1232.71 675.455 1232.71H667.993C665.45 1232.71 663.116 1234.12 661.929 1236.37L656.218 1247.19C654.24 1250.94 650.349 1253.29 646.111 1253.29H638.013C634.296 1253.29 630.953 1251.02 629.573 1247.57 628.192 1244.12 624.85 1241.86 621.133 1241.86H606.145V1248.71z"></path><path fill="#F6E5C8" d="M682.748 1243H674.716C672.822 1243 671.287 1244.53 671.287 1246.43 671.287 1248.32 672.822 1249.86 674.716 1249.86H683.627C683.487 1249.18 683.377 1248.5 683.297 1247.8L683.271 1247.57H674.716C674.084 1247.57 673.573 1247.06 673.573 1246.43 673.573 1245.8 674.084 1245.29 674.716 1245.29H683.01L682.748 1243zM685.091 1254.43H677.001C675.108 1254.43 673.573 1255.96 673.573 1257.86 673.573 1259.75 675.108 1261.29 677.001 1261.29H689.761C689.051 1260.57 688.389 1259.8 687.78 1259H677.001C676.37 1259 675.859 1258.49 675.859 1257.86 675.859 1257.23 676.37 1256.71 677.001 1256.71H686.257C685.827 1255.98 685.437 1255.21 685.091 1254.43z"></path><path fill="#69340E" fill-rule="evenodd" d="M665.573 1236.14C665.573 1250.34 666.097 1261.4 673.448 1269.35C680.773 1277.27 694.618 1281.85 720.329 1284.14L720.531 1281.86C694.814 1279.58 681.802 1275.02 675.127 1267.8C668.478 1260.6 667.859 1250.52 667.859 1236.14H665.573ZM606.145 1279.57C619.16 1279.57 627.859 1288.27 627.859 1299H630.145C630.145 1287.01 620.423 1277.29 606.145 1277.29V1279.57Z" clip-rule="evenodd"></path><path fill="#F7ABA6" d="M418.716 1193.86H480.43L475.859 1260.14H414.145L418.716 1193.86Z"></path><path fill="#FDD39B" d="M416.43 1228.14H478.145V1260.14H414.145L416.43 1228.14Z"></path><path fill="#7A431C" d="M459.646 1247.19C457.667 1250.94 453.777 1253.29 449.539 1253.29H441.441C437.724 1253.29 434.381 1251.02 433.001 1247.57V1247.57C431.62 1244.12 428.278 1241.86 424.561 1241.86H409.572V1312.71H444.429L461.858 1303.57H479.287L503.287 1305.86L514.144 1312.71H549.001L550.707 1300.77C552.342 1289.33 545.171 1278.46 534.002 1275.46L503.512 1267.28C494.447 1264.85 487.791 1257.13 486.725 1247.8L485.696 1238.79C485.3 1235.33 482.369 1232.71 478.883 1232.71H471.421C468.878 1232.71 466.544 1234.12 465.357 1236.37L459.646 1247.19Z"></path><path fill="#2E1503" d="M409.572 1294.43C412.499 1297.36 417.612 1299 421.752 1299H550.69V1312.71H507.215C506.23 1309.97 503.629 1308.14 500.715 1308.14H500.342C497.893 1308.14 495.6 1309.35 494.213 1311.37L493.287 1312.71H474.715C472.557 1309.84 469.169 1308.14 465.572 1308.14H461.361C457.501 1308.14 453.828 1309.81 451.287 1312.71H409.572V1294.43Z"></path><path fill="#69340E" d="M528.501 1273.99C527.522 1275.12 526.719 1276.42 526.144 1277.86 524.073 1283.03 519.059 1286.43 513.483 1286.43H510.144C503.201 1286.43 497.572 1292.06 497.572 1299H550.891C551.589 1288.22 544.592 1278.31 534.002 1275.46L528.501 1273.99zM409.572 1248.71H422.099C424.887 1248.71 427.394 1250.41 428.429 1253 430.155 1257.31 434.333 1260.14 438.98 1260.14H454.911C459.328 1260.14 463.349 1257.6 465.24 1253.61L470.572 1242.35C471.706 1239.96 474.119 1238.43 476.769 1238.43H485.644C485.092 1235.15 482.245 1232.71 478.883 1232.71H471.421C468.878 1232.71 466.544 1234.12 465.357 1236.37L459.646 1247.19C457.667 1250.94 453.777 1253.29 449.538 1253.29H441.441C437.724 1253.29 434.381 1251.02 433.001 1247.57 431.62 1244.12 428.278 1241.86 424.561 1241.86H409.572V1248.71z"></path><path fill="#F6E5C8" d="M486.176 1243H478.143C476.25 1243 474.715 1244.53 474.715 1246.43 474.715 1248.32 476.25 1249.86 478.143 1249.86H487.055C486.915 1249.18 486.804 1248.5 486.725 1247.8L486.699 1247.57H478.143C477.512 1247.57 477.001 1247.06 477.001 1246.43 477.001 1245.8 477.512 1245.29 478.143 1245.29H486.437L486.176 1243zM488.519 1254.43H480.429C478.536 1254.43 477.001 1255.96 477.001 1257.86 477.001 1259.75 478.536 1261.29 480.429 1261.29H493.188C492.479 1260.57 491.817 1259.8 491.208 1259H480.429C479.798 1259 479.286 1258.49 479.286 1257.86 479.286 1257.23 479.798 1256.71 480.429 1256.71H489.684C489.255 1255.98 488.865 1255.21 488.519 1254.43z"></path><path fill="#69340E" fill-rule="evenodd" d="M469.001 1236.14C469.001 1250.34 469.524 1261.4 476.876 1269.35C484.2 1277.27 498.046 1281.85 523.757 1284.14L523.959 1281.86C498.242 1279.58 485.23 1275.02 478.554 1267.8C471.906 1260.6 471.287 1250.52 471.287 1236.14H469.001ZM409.572 1279.57C422.588 1279.57 431.287 1288.27 431.287 1299H433.572C433.572 1287.01 423.85 1277.29 409.572 1277.29V1279.57Z" clip-rule="evenodd"></path><path fill="#CD8C38" d="M549.002 712.714H422.145L406.145 1222.43H488.43L549.002 712.714Z"></path><path fill="#CD8C38" d="M527.287 712.714H647.287L686.145 1222.43H597.002L532.145 840.142L527.287 712.714Z"></path><path stroke="#8E4B0C" stroke-width="3.429" d="M528.429 806.428L481.572 1222.43M598.145 1223.57L523.859 784.714M593.572 1190.43H682.715M406.145 1190.43H493.002"></path><path stroke="#8E4B0C" stroke-linecap="round" stroke-width="3.429" d="M551.287 766.428H597.001"></path><path fill="#2A5F49" d="M423.287 697.857C423.287 695.332 425.334 693.286 427.859 693.286H667.858C670.383 693.286 672.43 695.332 672.43 697.857V727.571C672.43 730.096 670.383 732.143 667.858 732.143H427.859C425.334 732.143 423.287 730.096 423.287 727.571V697.857Z"></path><path fill="#241B14" d="M590.144 288.714H542.145V305.857C545.394 304.232 560.013 306.097 565.636 306.8C566.624 306.923 567.42 307.663 567.615 308.639L569.573 318.429H573.001C574.263 318.429 575.236 317.39 575.498 316.155C576.79 310.057 583.726 313.2 587.859 307C592.43 300.143 590.144 288.714 590.144 288.714Z"></path><path fill="#F7ABA6" d="M576.293 318.429C577.43 332.143 571.323 332.143 563.79 332.143C556.257 332.143 551.287 326.003 551.287 318.429C551.287 310.854 556.257 304.714 563.79 304.714C571.323 304.714 576.293 310.854 576.293 318.429Z"></path><path fill="#D5726B" fill-rule="evenodd" d="M560.459 312.966C560.951 312.571 561.67 312.649 562.065 313.141L568.139 320.701C568.534 321.193 568.456 321.913 567.964 322.308C567.472 322.703 566.752 322.625 566.357 322.133L560.283 314.573C559.888 314.081 559.967 313.362 560.459 312.966Z" clip-rule="evenodd"></path><path fill="#BD4C00" d="M496.43 273.833C496.43 249.674 514.386 229.279 538.351 226.22L549.855 224.751C550.047 224.727 550.241 224.727 550.433 224.751L561.937 226.22C585.902 229.279 603.858 249.674 603.858 273.833V286.429C603.858 287.691 602.835 288.714 601.573 288.714H498.715C497.453 288.714 496.43 287.691 496.43 286.429V273.833Z"></path><path fill="#D56011" fill-rule="evenodd" d="M592.429 288.714C593.692 288.714 594.715 287.691 594.715 286.429V272.752C594.715 249.06 577.43 228.912 554.014 225.31L550.491 224.768C550.39 224.752 550.288 224.744 550.187 224.742C550.056 224.739 549.925 224.748 549.796 224.768L546.273 225.31C522.858 228.912 505.572 249.06 505.572 272.752V286.429C505.572 287.691 506.596 288.714 507.858 288.714H592.429ZM592.429 286.429V272.752C592.429 253.023 579.844 235.875 561.775 229.584C572.102 236.192 578.715 247.734 578.715 260.535V286.429H592.429ZM521.572 260.535C521.572 247.734 528.185 236.192 538.512 229.584C520.443 235.875 507.858 253.023 507.858 272.752V286.429H521.572V260.535ZM523.858 260.535V286.429H537.572V245.291C537.572 239.152 540.006 233.369 544.181 229.111C531.994 234.584 523.858 246.786 523.858 260.535ZM556.107 229.111C568.294 234.584 576.429 246.786 576.429 260.535V286.429H562.715V245.291C562.715 239.152 560.281 233.369 556.107 229.111ZM560.429 286.429V245.291C560.429 237.888 556.501 231.059 550.144 227.33C543.786 231.059 539.858 237.888 539.858 245.291V286.429H560.429Z" clip-rule="evenodd"></path><rect width="112" height="20.571" x="494.145" y="277.286" fill="#9F4000" rx="2.286"></rect><rect width="13.714" height="9.143" x="581.002" y="284.143" fill="#FBBC91" rx="2.286"></rect><path fill="#BD4C00" d="M553.506 226.53C553.549 226.312 553.572 226.087 553.572 225.857C553.572 223.964 552.037 222.429 550.143 222.429C548.25 222.429 546.715 223.964 546.715 225.857C546.715 226.087 546.738 226.312 546.781 226.53L550.143 225.857L553.506 226.53Z"></path><path stroke="#1A4E38" stroke-width="2.286" d="M512.43 384.714V403M530.715 384.714V403M567.287 384.714V403M553.572 384.714V403"></path><path stroke="#000" stroke-width="2.286" d="M411.859 526.429L431.288 564.143"></path><path fill="#CB712F" d="M506.716 765.285C455.288 807.571 422.145 782.428 422.145 782.428L421.002 732.143H648.43C633.573 752.714 535.288 741.793 506.716 765.285Z"></path><path fill="#DB552B" d="M617.572 318.429V407.572H393.572V407.557C369.484 406.951 350.144 387.234 350.144 363C350.144 338.766 369.484 319.049 393.572 318.443V318.429H617.572Z"></path><path fill="#C04923" d="M352.68 377.857H608.43V407.572H393.573V407.557C374.663 407.081 358.679 394.828 352.68 377.857Z"></path><path fill="#7A431C" d="M567.287 318.429H602.252C593.076 309.918 580.789 304.714 567.287 304.714 538.884 304.714 515.858 327.74 515.858 356.143V407.571H529.573V356.143C529.573 335.314 546.458 318.429 567.287 318.429zM453.002 318.429H487.967C478.791 309.918 466.504 304.714 453.002 304.714 424.599 304.714 401.573 327.74 401.573 356.143V407.571H415.287V356.143C415.287 335.314 432.173 318.429 453.002 318.429z"></path><circle cx="44.571" cy="44.571" r="44.571" fill="#D04219" transform="matrix(-1 0 0 1 658.717 318.429)"></circle><circle cx="33.143" cy="33.143" r="30.857" stroke="#DC5531" stroke-width="4.571" transform="matrix(-1 0 0 1 647.287 329.857)"></circle><circle cx="14.857" cy="14.857" r="12.571" stroke="#DC5531" stroke-width="4.571" transform="matrix(-1 0 0 1 629.002 348.143)"></circle><path fill="#495927" d="M635.859 416.714C635.859 411.665 631.766 407.571 626.717 407.571H393.574V732.143C393.574 742.242 401.761 750.428 411.859 750.428H626.717C631.766 750.428 635.859 746.335 635.859 741.285V416.714Z"></path><path fill="#2B3C0A" d="M375.287 713.857C375.287 722.693 382.451 729.857 391.287 729.857H555.858C563.433 729.857 569.573 723.717 569.573 716.143V592.714C569.573 580.09 559.339 569.857 546.716 569.857H398.144C385.521 569.857 375.287 580.09 375.287 592.714V713.857Z"></path><path fill="#1E2809" d="M375.287 622.429C375.287 631.265 382.451 638.429 391.287 638.429H523.858C531.433 638.429 537.573 632.289 537.573 624.714V592.119C537.573 584.619 541.253 577.595 547.419 573.326L552.43 569.857H398.144C385.521 569.857 375.287 580.091 375.287 592.714V622.429Z"></path><path fill="#253308" d="M537.572 709.857C537.572 720.903 546.527 729.857 557.572 729.857V729.857C564.2 729.857 569.572 724.484 569.572 717.857V585.857C569.572 577.02 562.409 569.857 553.572 569.857V569.857C544.736 569.857 537.572 577.02 537.572 585.857V709.857Z"></path><path fill="#2B3B0A" d="M373.002 430.428C373.002 417.805 383.235 407.571 395.859 407.571H569.573V515H382.145C377.095 515 373.002 510.906 373.002 505.857V430.428Z"></path><path fill="#2B3B0A" d="M546.717 430.428C546.717 417.805 556.95 407.571 569.574 407.571V407.571V515H555.86C550.81 515 546.717 510.906 546.717 505.857V430.428Z"></path><path fill="#253308" d="M537.572 430.428C537.572 417.805 547.806 407.571 560.429 407.571H569.572V515H546.715C541.666 515 537.572 510.906 537.572 505.857V430.428Z"></path><path fill="#3A4A16" d="M569.572 407.571H626.715C631.765 407.571 635.858 411.665 635.858 416.714V741.285C635.858 746.335 631.765 750.428 626.715 750.428H587.858C577.759 750.428 569.572 742.242 569.572 732.143V407.571Z"></path><path fill="#304207" d="M580.556 748.913C574.091 746.094 569.572 739.647 569.572 732.144V695.247L595.547 669.272L611.71 685.435L626.715 694.429V702.429L580.556 748.913Z"></path><path fill="#2B3B0A" d="M608.43 407.571H601.573V472.714C601.573 474.608 603.108 476.143 605.001 476.143V476.143C606.895 476.143 608.43 474.608 608.43 472.714V407.571Z"></path><rect width="13.714" height="9.143" fill="#B1320A" transform="matrix(-1 0 0 1 610.717 611)"></rect><path fill="#D34316" d="M626.717 629.286C626.717 621.711 620.577 615.571 613.003 615.571H594.717C587.143 615.571 581.003 621.711 581.003 629.286V681.857H626.717V629.286Z"></path><path fill="#DB552B" d="M626.717 681.857H587.86V629.286C587.86 621.711 594.818 615.571 603.403 615.571H611.174C621.003 615.571 626.717 621.711 626.717 629.286V681.857Z"></path><rect width="18.286" height="13.714" fill="#D04219" rx="2.286" transform="matrix(-1 0 0 1 613.002 599.571)"></rect><path fill="#2B3B0A" d="M629.002 640.714H578.716V697.857C578.716 704.169 583.833 709.286 590.145 709.286H603.859H617.573C623.885 709.286 629.002 704.169 629.002 697.857V640.714Z"></path><path fill="#263408" d="M658.309 645.54L648.051 652.715V689.159L674.387 667.963C674.686 667.347 674.844 666.666 674.844 665.97V650.111C674.844 647.587 672.798 645.54 670.273 645.54H658.309Z"></path><path fill="#2B3B0A" d="M631.287 654.683C631.287 652.158 633.334 650.111 635.859 650.111H665.7C668.225 650.111 670.271 652.158 670.271 654.683V670.542C670.271 671.636 669.878 672.695 669.164 673.524L652.591 692.776C651.723 693.785 650.458 694.365 649.127 694.365H635.859C633.334 694.365 631.287 692.319 631.287 689.794V654.683Z"></path><path fill="#B1320A" d="M610.144 603C610.144 602.685 610.4 602.429 610.716 602.429 611.031 602.429 611.287 602.685 611.287 603V609.857C611.287 610.173 611.031 610.429 610.716 610.429 610.4 610.429 610.144 610.173 610.144 609.857V603zM605.573 603C605.573 602.685 605.829 602.429 606.144 602.429 606.46 602.429 606.716 602.685 606.716 603V609.857C606.716 610.173 606.46 610.429 606.144 610.429 605.829 610.429 605.573 610.173 605.573 609.857V603zM601.573 602.429C601.257 602.429 601.001 602.685 601.001 603V609.857C601.001 610.173 601.257 610.429 601.573 610.429 601.888 610.429 602.144 610.173 602.144 609.857V603C602.144 602.685 601.888 602.429 601.573 602.429zM596.43 603C596.43 602.685 596.686 602.429 597.001 602.429 597.317 602.429 597.573 602.685 597.573 603V609.857C597.573 610.173 597.317 610.429 597.001 610.429 596.686 610.429 596.43 610.173 596.43 609.857V603z"></path><rect width="16" height="89.143" x="505.572" y="478.429" fill="#7A431C" rx="2.286"></rect><rect width="16" height="89.143" x="411.859" y="478.429" fill="#7A431C" rx="2.286"></rect><rect width="34.286" height="11.429" x="402.717" y="531" fill="#3A4A16" rx="2.286"></rect><rect width="34.286" height="11.429" x="496.43" y="531" fill="#3A4A16" rx="2.286"></rect><circle cx="514.715" cy="700.143" r="8" stroke="#495927" stroke-width="2.286"></circle><circle cx="400.43" cy="700.143" r="8" stroke="#495927" stroke-width="2.286"></circle><path fill="#3A4A16" fill-rule="evenodd" d="M471.056 432.045C470.163 431.152 468.716 431.152 467.823 432.045L450.044 449.824C449.152 450.716 449.152 452.163 450.044 453.056L467.823 470.835C468.716 471.727 470.163 471.727 471.056 470.835L488.834 453.056C489.727 452.163 489.727 450.716 488.834 449.824L471.056 432.045ZM466.716 440.518C466.131 440.518 465.546 440.741 465.099 441.187L456.903 449.383C456.011 450.276 456.011 451.723 456.903 452.616L465.099 460.812C465.546 461.258 466.131 461.481 466.716 461.481V440.518ZM472.234 440.518C472.819 440.518 473.404 440.741 473.85 441.187L482.046 449.383C482.939 450.276 482.939 451.723 482.046 452.616L473.85 460.812C473.404 461.258 472.819 461.481 472.234 461.481V440.518Z" clip-rule="evenodd"></path><path stroke="#CE5E56" stroke-linecap="round" stroke-width="2.286" d="M813.102 465.326C814.66 462.073 817.412 458.604 822.134 454.97C823.213 454.139 823.41 452.565 822.513 451.54L821 449.814"></path><rect width="84.571" height="1142.86" x="1061" y="179" fill="#713D18" rx="4.571"></rect><rect width="66.286" height="1142.86" x="1051.86" y="179" fill="#7A431C" rx="4.571"></rect><path fill="#50290E" d="M980.396 241.977C981.247 241.167 982.376 240.714 983.551 240.714H1200.43C1202.96 240.714 1205 242.761 1205 245.286V359.571C1205 362.096 1202.96 364.143 1200.43 364.143H983.551C982.376 364.143 981.247 363.691 980.396 362.88L920.471 305.737C918.583 303.936 918.583 300.921 920.471 299.12L980.396 241.977Z"></path><path fill="#643411" d="M971.252 241.977C972.102 241.167 973.232 240.714 974.407 240.714H1191.29C1193.81 240.714 1195.86 242.761 1195.86 245.286V359.571C1195.86 362.096 1193.81 364.143 1191.29 364.143H974.407C973.232 364.143 972.102 363.691 971.252 362.88L911.327 305.737C909.438 303.936 909.438 300.921 911.327 299.12L971.252 241.977Z"></path><path fill="#50290E" d="M1237.61 477.406C1236.76 476.595 1235.63 476.143 1234.45 476.143H1017.57C1015.05 476.143 1013 478.189 1013 480.714V595C1013 597.524 1015.05 599.571 1017.57 599.571H1234.45C1235.63 599.571 1236.76 599.119 1237.61 598.308L1297.53 541.165C1299.42 539.364 1299.42 536.35 1297.53 534.548L1237.61 477.406Z"></path><path fill="#643411" d="M1223.89 477.406C1223.04 476.595 1221.91 476.143 1220.74 476.143H1003.86C1001.33 476.143 999.287 478.189 999.287 480.714V595C999.287 597.524 1001.33 599.571 1003.86 599.571H1220.74C1221.91 599.571 1223.04 599.119 1223.89 598.308L1283.82 541.165C1285.71 539.364 1285.71 536.35 1283.82 534.548L1223.89 477.406Z"></path><path fill="#000" d="M652.901 250.108L646.484 248.388C647.099 246.187 647.778 244.434 648.522 243.129 649.295 241.808 650.276 240.678 651.464 239.74 652.652 238.801 654.171 237.778 656.02 236.671 657.368 235.874 658.605 235.121 659.731 234.412 660.887 233.687 661.889 232.846 662.737 231.89 663.591 230.911 664.227 229.639 664.646 228.075 665.071 226.489 665.151 225.043 664.884 223.739 664.64 222.441 664.049 221.334 663.112 220.417 662.197 219.507 660.935 218.836 659.325 218.404 657.991 218.047 656.662 217.95 655.336 218.112 654.011 218.275 652.845 218.763 651.838 219.578 650.837 220.37 650.109 221.567 649.655 223.171L643.273 221.461C644.015 218.875 645.257 216.816 646.998 215.286 648.762 213.762 650.846 212.792 653.25 212.377 655.653 211.961 658.178 212.107 660.822 212.816 663.743 213.598 666.085 214.793 667.849 216.399 669.635 218.012 670.804 219.952 671.355 222.219 671.912 224.464 671.83 226.931 671.109 229.622 670.554 231.692 669.617 233.487 668.298 235.007 667.008 236.51 665.504 237.845 663.786 239.011 662.069 240.178 660.289 241.254 658.448 242.239 656.868 243.073 655.663 244.168 654.832 245.523 654 246.877 653.357 248.406 652.901 250.108zM643.278 259.25C643.555 258.215 644.111 257.427 644.946 256.887 645.781 256.347 646.808 256.24 648.027 256.566 649.269 256.899 650.117 257.508 650.57 258.394 651.022 259.279 651.11 260.239 650.833 261.274 650.568 262.263 650.018 263.028 649.183 263.568 648.348 264.109 647.31 264.213 646.068 263.88 644.849 263.553 644.013 262.947 643.56 262.062 643.107 261.176 643.013 260.239 643.278 259.25zM679.961 269.85L677.025 263.891C679.086 262.902 680.852 262.258 682.324 261.958 683.827 261.669 685.323 261.662 686.812 261.937 688.301 262.212 690.071 262.68 692.122 263.342 693.61 263.83 694.992 264.264 696.267 264.644 697.575 265.035 698.867 265.235 700.145 265.242 701.444 265.239 702.82 264.88 704.272 264.165 705.746 263.439 706.885 262.546 707.69 261.486 708.506 260.447 708.949 259.273 709.021 257.964 709.103 256.676 708.776 255.284 708.039 253.789 707.429 252.55 706.626 251.486 705.631 250.596 704.635 249.707 703.499 249.151 702.222 248.931 700.967 248.7 699.587 248.942 698.081 249.657L695.162 243.73C697.596 242.584 699.963 242.161 702.261 242.462 704.569 242.785 706.672 243.713 708.569 245.247 710.466 246.781 712.02 248.776 713.23 251.232 714.566 253.945 715.211 256.494 715.165 258.878 715.129 261.285 714.44 263.442 713.098 265.351 711.777 267.249 709.867 268.814 707.368 270.045 705.446 270.992 703.478 271.47 701.466 271.479 699.485 271.499 697.49 271.248 695.481 270.725 693.471 270.202 691.489 269.573 689.534 268.837 687.866 268.199 686.249 268.013 684.682 268.281 683.115 268.549 681.541 269.072 679.961 269.85zM666.743 268.638C667.704 268.164 668.663 268.064 669.62 268.335 670.577 268.607 671.334 269.309 671.891 270.441 672.46 271.595 672.56 272.633 672.192 273.558 671.825 274.482 671.161 275.181 670.199 275.654 669.281 276.107 668.343 276.197 667.387 275.925 666.43 275.653 665.668 274.94 665.099 273.787 664.542 272.655 664.447 271.627 664.814 270.703 665.182 269.779 665.825 269.09 666.743 268.638z"></path><rect width="153.143" height="27.429" x="999.287" y="284.143" fill="#74401A" rx="4.571"></rect><rect width="153.143" height="27.429" x="1042.71" y="524.143" fill="#74401A" rx="4.571"></rect></svg>