<svg xmlns="http://www.w3.org/2000/svg" width="643.319" height="1434.147" fill="none" viewBox="472.758 63.011 643.319 1434.147" id="mountaineer-confused-while-looking-into-map"><path fill="#F7ABA6" d="M933.51 1293.15H861.591L866.919 1370.4H938.837L933.51 1293.15Z"></path><path fill="#FDD39B" d="M864.255 1333.11H936.173L933.509 1370.4H866.919L864.255 1333.11Z"></path><path fill="#7A431C" d="M914.616 1355.3C912.311 1359.67 907.777 1362.41 902.838 1362.41H893.402C889.07 1362.41 885.175 1359.77 883.566 1355.75V1355.75C881.957 1351.72 878.062 1349.09 873.73 1349.09H856.264V1431.66H896.884L917.194 1421.01H937.505L965.473 1423.67L978.125 1431.66H1018.75L1020.73 1417.74C1022.64 1404.4 1014.28 1391.74 1001.27 1388.25L965.735 1378.72C955.172 1375.88 947.415 1366.88 946.173 1356.02L944.973 1345.52C944.512 1341.48 941.096 1338.43 937.034 1338.43H928.339C925.375 1338.43 922.655 1340.07 921.272 1342.69L914.616 1355.3Z"></path><path fill="#2E1503" d="M856.264 1410.35C859.675 1413.76 865.633 1415.68 870.457 1415.68H1020.71V1431.66H970.051C968.902 1428.46 965.872 1426.33 962.476 1426.33H962.041C959.187 1426.33 956.516 1427.74 954.899 1430.09L953.819 1431.66H932.177C929.662 1428.31 925.715 1426.33 921.523 1426.33H916.615C912.117 1426.33 907.837 1428.27 904.875 1431.66H856.264V1410.35Z"></path><path fill="#69340E" d="M994.857 1386.53C993.715 1387.85 992.78 1389.36 992.109 1391.04 989.696 1397.07 983.853 1401.03 977.355 1401.03H973.463C965.373 1401.03 958.813 1407.59 958.813 1415.68H1020.95C1021.76 1403.12 1013.61 1391.56 1001.27 1388.25L994.857 1386.53zM856.264 1357.08H870.862C874.111 1357.08 877.032 1359.06 878.239 1362.07 880.249 1367.1 885.119 1370.4 890.533 1370.4H909.099C914.246 1370.4 918.932 1367.43 921.135 1362.78L927.349 1349.66C928.671 1346.87 931.482 1345.09 934.57 1345.09H944.913C944.269 1341.27 940.952 1338.43 937.034 1338.43H928.338C925.375 1338.43 922.655 1340.07 921.271 1342.69L914.616 1355.3C912.311 1359.67 907.777 1362.41 902.838 1362.41H893.401C889.07 1362.41 885.175 1359.77 883.566 1355.75 881.957 1351.72 878.062 1349.09 873.73 1349.09H856.264V1357.08z"></path><path fill="#F6E5C8" d="M945.533 1350.42H936.172C933.966 1350.42 932.177 1352.21 932.177 1354.41 932.177 1356.62 933.966 1358.41 936.172 1358.41H946.557C946.394 1357.62 946.265 1356.82 946.173 1356.02L946.142 1355.75H936.172C935.437 1355.75 934.84 1355.15 934.84 1354.41 934.84 1353.68 935.437 1353.08 936.172 1353.08H945.837L945.533 1350.42zM948.263 1363.74H938.836C936.629 1363.74 934.84 1365.53 934.84 1367.73 934.84 1369.94 936.629 1371.73 938.836 1371.73H953.705C952.877 1370.89 952.106 1370 951.397 1369.06H938.836C938.1 1369.06 937.504 1368.47 937.504 1367.73 937.504 1367 938.1 1366.4 938.836 1366.4H949.621C949.12 1365.54 948.667 1364.65 948.263 1363.74z"></path><path fill="#69340E" fill-rule="evenodd" d="M925.518 1342.43C925.518 1358.97 926.128 1371.86 934.695 1381.12C943.231 1390.35 959.366 1395.7 989.328 1398.36L989.563 1395.71C959.594 1393.04 944.431 1387.73 936.651 1379.31C928.904 1370.93 928.182 1359.18 928.182 1342.43H925.518ZM856.264 1393.04C871.432 1393.04 881.568 1403.17 881.568 1415.68H884.232C884.232 1401.7 872.903 1390.37 856.264 1390.37V1393.04Z" clip-rule="evenodd"></path><path fill="#F7ABA6" d="M642.309 1293.46H714.227L703.572 1370.71H631.654L642.309 1293.46Z"></path><path fill="#FDD39B" d="M636.982 1333.42H708.9L703.572 1370.71H631.654L636.982 1333.42Z"></path><path fill="#7A431C" d="M684.68 1355.62C682.374 1359.99 677.841 1362.72 672.901 1362.72H663.465C659.133 1362.72 655.238 1360.08 653.629 1356.06V1356.06C652.021 1352.04 648.125 1349.4 643.794 1349.4H631.654L626.327 1431.97H666.948L687.258 1421.32H707.568L735.536 1423.98L748.189 1431.97H788.809L790.797 1418.06C792.703 1404.72 784.346 1392.06 771.33 1388.56L735.798 1379.03C725.236 1376.2 717.478 1367.19 716.237 1356.33L715.037 1345.83C714.575 1341.79 711.16 1338.75 707.097 1338.75H698.402C695.439 1338.75 692.718 1340.39 691.335 1343.01L684.68 1355.62Z"></path><path fill="#2E1503" d="M627.659 1410.66C631.07 1414.08 635.696 1415.99 640.52 1415.99H790.777V1431.97H740.114C738.966 1428.78 735.935 1426.65 732.539 1426.65H732.105C729.25 1426.65 726.579 1428.05 724.962 1430.4L723.883 1431.97H702.241C699.726 1428.62 695.778 1426.65 691.586 1426.65H686.679C682.18 1426.65 677.901 1428.59 674.939 1431.97H626.327L627.659 1410.66Z"></path><path fill="#69340E" d="M764.92 1386.84C763.779 1388.16 762.843 1389.68 762.172 1391.35 759.759 1397.39 753.916 1401.34 747.419 1401.34H743.527C735.436 1401.34 728.877 1407.9 728.877 1415.99H791.011C791.824 1403.43 783.671 1391.88 771.33 1388.56L764.92 1386.84zM631.14 1357.39H640.926C644.175 1357.39 647.096 1359.37 648.303 1362.39 650.314 1367.41 655.183 1370.71 660.598 1370.71H679.163C684.31 1370.71 688.996 1367.74 691.2 1363.09L697.413 1349.98C698.735 1347.18 701.547 1345.4 704.635 1345.4H714.978C714.334 1341.58 711.017 1338.75 707.098 1338.75H698.403C695.439 1338.75 692.719 1340.39 691.336 1343.01L684.681 1355.62C682.375 1359.99 677.842 1362.72 672.902 1362.72H663.466C659.134 1362.72 655.239 1360.08 653.63 1356.06 652.021 1352.04 648.126 1349.4 643.794 1349.4H631.655L631.14 1357.39z"></path><path fill="#F6E5C8" d="M715.596 1350.73H706.236C704.029 1350.73 702.24 1352.52 702.24 1354.73 702.24 1356.93 704.029 1358.72 706.236 1358.72H716.62C716.457 1357.94 716.329 1357.14 716.236 1356.33L716.205 1356.06H706.236C705.5 1356.06 704.904 1355.46 704.904 1354.73 704.904 1353.99 705.5 1353.4 706.236 1353.4H715.901L715.596 1350.73zM718.326 1364.05H708.899C706.693 1364.05 704.904 1365.84 704.904 1368.05 704.904 1370.25 706.693 1372.04 708.899 1372.04H723.768C722.941 1371.21 722.17 1370.32 721.46 1369.38H708.899C708.164 1369.38 707.568 1368.78 707.568 1368.05 707.568 1367.31 708.164 1366.71 708.899 1366.71H719.685C719.184 1365.86 718.73 1364.97 718.326 1364.05z"></path><path fill="#69340E" fill-rule="evenodd" d="M695.582 1342.74C695.582 1359.29 696.191 1372.17 704.759 1381.44C713.294 1390.67 729.429 1396.01 759.391 1398.67L759.627 1396.02C729.657 1393.36 714.494 1388.04 706.715 1379.63C698.967 1371.25 698.245 1359.49 698.245 1342.74H695.582ZM628.99 1393.35C641.494 1393.35 651.631 1403.49 651.631 1415.99H654.295C654.295 1402.02 642.966 1390.69 628.99 1390.69V1393.35Z" clip-rule="evenodd"></path><path fill="#CD8C38" d="M906.873 755.739H741.727L741.823 756.405L641.841 760.424L637.846 1046.76L631.187 1309.13H729.741L785.677 865.637L803.657 1001.46L841.614 1309.13H940.168L906.873 755.739Z"></path><path stroke="#8E4B0C" stroke-linecap="round" stroke-width="3.995" d="M789.673 824.351L729.741 1310.46H631.187"></path><path fill="#495927" d="M549.945 372.176H832.291V771.721H568.591C558.293 771.721 549.945 763.373 549.945 753.076V372.176Z"></path><path fill="#CB712F" d="M737.732 791.698C677.8 840.976 640.509 813.007 640.509 813.007V755.739H905.541C888.227 779.712 771.027 764.322 737.732 791.698Z"></path><path fill="#8E4B0C" fill-rule="evenodd" d="M701.286 800.547C694.385 807.644 684.841 813.516 672.473 814.26C671.004 814.348 669.81 813.147 669.81 811.676V811.676C669.81 810.204 671.005 809.022 672.473 808.921C683.081 808.191 691.33 803.145 697.466 796.833C703.183 790.953 706.985 784.048 709.009 778.779C709.536 777.405 711.022 776.616 712.428 777.048V777.048C713.834 777.481 714.628 778.973 714.11 780.35C711.886 786.269 707.68 793.971 701.286 800.547Z" clip-rule="evenodd"></path><path stroke="#495A27" stroke-width="15.982" d="M776.355 260.303C747.669 260.303 724.415 283.558 724.415 312.244V370.844"></path><path fill="#DB552B" d="M571.255 268.294V372.176H832.291V372.159C860.362 371.453 882.9 348.476 882.9 320.235C882.9 291.994 860.362 269.017 832.291 268.311V268.294H571.255Z"></path><path fill="#255340" d="M876.511 469.949C858.788 484.408 832.786 482.179 817.782 464.915V464.915C802.335 447.141 804.357 420.177 822.283 404.906L955.073 291.778L977.723 301.075C1009.48 314.108 1015.75 356.354 989.154 378.052L876.511 469.949Z"></path><path fill="#255340" d="M843.409 305.147C837.404 301.056 835.786 292.908 839.772 286.834L866.072 246.752C870.021 240.733 878.038 238.942 884.174 242.707L989.499 307.352C1004.91 316.813 1009.42 337.168 999.426 352.246L995.049 358.854L962.884 386.545L843.409 305.147Z"></path><path fill="#F7ABA6" d="M807.197 279.185L767.241 248.851C761.697 244.642 761.364 236.22 766.564 231.749L772.456 226.684L797.605 204.179C803.008 199.345 810.892 198.807 817.009 202.856L836.338 215.65C840.976 218.72 844.631 223.159 846.821 228.382V228.382L855.182 235.141L844.053 258.895L830.12 282.455L823.412 279.204L807.197 279.185Z"></path><rect width="61.023" height="23.621" x="819.272" y="283.382" fill="#255340" rx="2.664" transform="rotate(-58.022 819.272 283.382)"></rect><path fill="#F7ABA6" d="M823.802 265.337L811.098 278.907C807.951 282.268 803.285 283.756 798.773 282.838C796.283 282.331 793.992 281.12 792.171 279.348L769.529 257.318C766.219 254.097 766.094 248.822 769.246 245.448C772.346 242.129 777.51 241.841 780.96 244.794L789.522 252.123C797.391 246.916 807.771 247.62 814.865 253.841L823.614 261.514C824.746 262.506 824.831 264.239 823.802 265.337Z"></path><path fill="#F7ABA6" d="M783.618 248.364L776.997 242.846L815.185 201.606L821.301 206.041C827.819 210.768 828.684 220.153 823.141 225.993L819.45 229.88C812.626 237.068 804.636 243.05 795.817 247.573L792.381 249.335C789.53 250.798 786.08 250.415 783.618 248.364Z"></path><path fill="#C04923" d="M879.944 337.548H581.909V372.176H832.291V372.159C854.327 371.604 872.954 357.325 879.944 337.548Z"></path><path fill="#7A431C" d="M635.182 268.294H594.436C605.128 258.376 619.447 252.312 635.182 252.312C668.281 252.312 695.114 279.145 695.114 312.244V372.176H679.132V312.244C679.132 287.971 659.455 268.294 635.182 268.294Z"></path><circle cx="575.25" cy="320.235" r="51.941" fill="#D04219"></circle><path stroke="#495A27" stroke-width="15.982" d="M775.022 260.303C803.709 260.303 826.963 283.558 826.963 312.244V373.508"></path><circle cx="575.25" cy="320.235" r="35.959" stroke="#DC5531" stroke-width="5.327"></circle><circle cx="575.25" cy="320.235" r="14.65" stroke="#DC5531" stroke-width="5.327"></circle><rect width="202.436" height="287.673" x="628.522" y="373.508" stroke="#000" stroke-width="2.664"></rect><rect width="18.645" height="103.882" x="541.954" y="460.076" fill="#7A431C" rx="2.664"></rect><path fill="#2B3B0A" d="M515.318 398.812C515.318 384.101 527.244 372.176 541.955 372.176H832.291V497.367H525.973C520.089 497.367 515.318 492.596 515.318 486.712V398.812Z"></path><rect width="226.409" height="186.455" x="502" y="561.294" fill="#2B3C0A" rx="26.636"></rect><path fill="#3A4A16" d="M549.945 372.176H616.536C622.421 372.176 627.191 376.946 627.191 382.83V771.721H571.254C559.486 771.721 549.945 762.181 549.945 750.412V372.176Z"></path><path fill="#304207" d="M562.745 769.954C555.211 766.669 549.945 759.156 549.945 750.412V707.415L580.215 677.146L599.05 695.98L616.536 706.462V715.784L562.745 769.954Z"></path><path fill="#2B3B0A" d="M581.909 372.176H589.9V448.089C589.9 450.296 588.111 452.085 585.905 452.085V452.085C583.698 452.085 581.909 450.296 581.909 448.089V372.176Z"></path><path fill="#202E05" d="M528.636 561.294H533.963V614.567C533.963 616.038 532.77 617.23 531.299 617.23V617.23C529.828 617.23 528.636 616.038 528.636 614.567V561.294Z"></path><rect width="15.982" height="10.655" x="579.245" y="609.239" fill="#B1320A"></rect><path fill="#D34316" d="M613.873 630.548C613.873 621.722 606.718 614.566 597.891 614.566H576.582C567.756 614.566 560.6 621.722 560.6 630.548V691.812H613.873V630.548Z"></path><path fill="#DB552B" d="M613.873 691.812H568.591V630.548C568.591 621.722 576.701 614.566 586.704 614.566H595.76C607.214 614.566 613.873 621.722 613.873 630.548V691.812Z"></path><rect width="21.309" height="15.982" x="576.582" y="595.921" fill="#D04219" rx="2.664"></rect><path fill="#2B3B0A" d="M557.937 643.867H616.537V710.458C616.537 717.813 610.574 723.776 603.218 723.776H587.237H571.255C563.899 723.776 557.937 717.813 557.937 710.458V643.867Z"></path><path fill="#241B14" d="M729.476 307.937C701.493 308.894 702.298 286.112 699.687 254.255L736.092 241.917C739.211 252.797 742.254 281.233 729.476 307.937Z"></path><path fill="#F7ABA6" d="M741.402 213.217C724.356 214.003 711.585 229.132 713.671 246.068L717.401 276.349C717.658 278.433 718.268 280.457 719.204 282.337C720.145 284.225 720.733 283.83 720.988 285.917L729.028 351.404L730.018 396.088L802.623 388.801L798.489 338.361L802.845 338.004C817.507 336.803 828.418 323.943 827.217 309.281L821.56 240.269C821.598 223.531 807.631 210.163 790.911 210.934L741.402 213.217Z"></path><path fill="#CE5E56" d="M762.942 341.274L801.436 338.119L802.742 354.047L762.942 341.274Z"></path><circle cx="776.391" cy="261.037" r="3.995" fill="#241B14" transform="rotate(-4.685 776.391 261.037)"></circle><path fill="#241B14" fill-rule="evenodd" d="M781.237 250.212C775.241 247.463 768.208 249.361 764.381 254.584C763.947 255.178 763.134 255.39 762.502 255.014V255.014C761.87 254.638 761.658 253.816 762.084 253.216C766.615 246.827 775.113 244.474 782.347 247.79L783.372 248.261C784.041 248.567 784.335 249.358 784.028 250.026C783.722 250.695 782.931 250.989 782.262 250.682L781.237 250.212Z" clip-rule="evenodd"></path><circle cx="808.291" cy="258.717" r="3.995" fill="#241B14" transform="rotate(-4.685 808.291 258.717)"></circle><path fill="#241B14" fill-rule="evenodd" d="M798.946 249.054C804.414 245.366 811.662 246.094 816.289 250.624C816.814 251.139 817.65 251.216 818.213 250.742V250.742C818.775 250.268 818.85 249.423 818.333 248.9C812.822 243.334 804.054 242.397 797.457 246.846L796.521 247.477C795.911 247.889 795.751 248.716 796.162 249.326C796.573 249.936 797.401 250.097 798.011 249.686L798.946 249.054Z" clip-rule="evenodd"></path><path stroke="#000" stroke-width="2.664" d="M783.013 608.203H828.443V632.163L806.967 657.111H783.013V608.203Z"></path><path stroke="#000" stroke-width="2.664" d="M791.005 597.549H836.434V621.508L814.958 646.456H791.005V597.549Z"></path><path fill="#2B3B0A" d="M784.346 606.872H832.439V632.657L810.242 658.443H784.346V606.872Z"></path><path fill="#2B3B0A" d="M801.215 609.905L864.106 565.918V543.166H901.101V561.782C901.101 568.234 898.178 574.338 893.152 578.383L801.215 652.375V609.905Z"></path><path fill="#2A5F49" d="M728.409 350.867C723.996 350.867 720.418 354.444 720.418 358.858V370.019C720.418 372.756 718.344 375.047 715.621 375.32L667.218 380.167C657.503 380.167 648.749 386.029 645.05 395.012L633.881 422.139C632.983 424.319 632.579 426.669 632.697 429.023L645.05 618.562L640.509 721.112C640.509 729.939 647.664 747.748 656.491 747.748H885.323C894.243 747.748 909.427 729.792 909.294 720.874L896.675 603.912L892.222 411.487C891.969 394.498 883.909 374.839 866.918 374.839H820.304C817.362 374.839 814.977 372.454 814.977 369.512V358.858C814.977 354.444 811.399 350.867 806.986 350.867H728.409Z"></path><rect width="13.318" height="61.264" x="756.377" y="630.548" fill="#1A4E38" rx="2.664" transform="rotate(30 756.377 630.548)"></rect><path fill="#2B3B0A" fill-rule="evenodd" d="M814.977 377.503H835.872C845.804 377.503 853.993 385.288 854.494 395.207L861.59 535.545C861.59 541.43 866.36 546.2 872.244 546.2H890.297C896.408 546.2 901.266 541.071 900.935 534.969L893.553 398.812C893.553 387.043 884.013 377.503 872.244 377.503H874.908C874.908 373.09 871.33 369.512 866.917 369.512H814.977V377.503Z" clip-rule="evenodd"></path><rect width="13.318" height="61.264" fill="#1A4E38" rx="2.664" transform="scale(-1 1) rotate(30 -1606.522 -1289.148)"></rect><path fill="#2B3B0A" d="M874.909 531.994H901.546V566.621 566.621C886.835 566.621 874.909 554.696 874.909 539.985V531.994zM646.724 657.85L686.875 629.768C701.126 619.801 709.615 603.504 709.615 586.113V540.502H746.61V594.422C746.61 610.551 739.303 625.811 726.738 635.924L646.724 700.321V657.85z"></path><path fill="#263408" d="M658.678 649.49L646.724 657.851V700.321L677.414 675.621C677.763 674.902 677.947 674.109 677.947 673.298V654.817C677.947 651.875 675.562 649.49 672.62 649.49H658.678Z"></path><path fill="#2B3B0A" d="M624.527 660.144C624.527 657.202 626.912 654.817 629.855 654.817H667.294C670.236 654.817 672.621 657.202 672.621 660.144V678.626C672.621 679.901 672.163 681.134 671.331 682.101L652.018 704.536C651.006 705.712 649.532 706.388 647.98 706.388H629.855C626.912 706.388 624.527 704.003 624.527 701.061V660.144Z"></path><path fill="#235842" d="M680.465 572.637L703.105 412.819L639.178 482.717C637.846 485.824 632.519 498.432 632.519 534.657C632.519 534.657 636.515 608.596 680.465 572.637Z"></path><path stroke="#1A4E38" stroke-width="2.664" d="M736.399 353.53V374.839M763.036 353.53V374.839"></path><path fill="#2B3B0A" d="M680.464 374.839H731.073C745.784 374.839 757.709 386.765 757.709 401.476V527.555C757.709 536.381 750.554 543.536 741.728 543.536H709.616V408.067C709.616 398.982 704.985 390.523 697.332 385.628L680.464 374.839Z"></path><path fill="#2B3B0A" d="M747.055 526.667H720.418V561.294V561.294C735.129 561.294 747.055 549.368 747.055 534.657V526.667Z"></path><path stroke="#1A4E38" stroke-width="5.327" d="M792.337 352.887V391.51L809.651 647.219L812.256 659.379C818.363 687.878 815.595 717.563 804.323 744.441V744.441"></path><path fill="#2A5F49" d="M632.519 715.785C632.519 712.843 634.904 710.458 637.846 710.458H906.873C909.815 710.458 912.2 712.843 912.2 715.785V750.412C912.2 753.354 909.815 755.739 906.873 755.739H637.846C634.904 755.739 632.519 753.354 632.519 750.412V715.785Z"></path><path fill="#1A4E38" fill-rule="evenodd" d="M633.851 710.458C633.851 709.722 634.447 709.126 635.182 709.126H909.537C910.273 709.126 910.869 709.722 910.869 710.458C910.869 711.193 910.273 711.789 909.537 711.789H635.182C634.447 711.789 633.851 711.193 633.851 710.458Z" clip-rule="evenodd"></path><path fill="#2B3B0A" d="M627.19 373.507C627.19 371.301 628.979 369.512 631.186 369.512H728.409C732.822 369.512 736.4 373.09 736.4 377.503V377.503H631.186C628.979 377.503 627.19 375.714 627.19 373.507V373.507Z"></path><path fill="#255340" d="M633.215 411.64C634.957 391.62 650.726 375.689 670.727 373.741V373.741C696.347 371.246 718.09 392.326 716.39 418.011L704.488 597.847C703.331 615.337 685.886 626.961 669.299 621.294L636.27 610.01C624.68 606.051 617.283 594.697 618.345 582.495L633.215 411.64Z"></path><path fill="#F7ABA6" d="M800.442 504.055L802.465 499.703C803.639 497.177 805.359 494.944 807.501 493.164C810.904 490.335 815.196 488.798 819.621 488.821L844.743 488.95C849.869 488.977 854.7 491.355 857.846 495.402L857.969 495.561C858.159 495.805 858.246 496.115 858.21 496.423C857.523 502.263 852.64 506.706 846.761 506.841L802.918 507.841C800.945 507.886 799.61 505.845 800.442 504.055Z"></path><path fill="#255340" d="M758.617 517.051C765.49 514.699 772.981 518.29 775.452 525.121L791.763 570.203C794.212 576.972 790.839 584.462 784.147 587.115L669.261 632.651C652.447 639.316 633.458 630.714 627.379 613.679L621.814 598.085C615.826 581.305 624.714 562.868 641.571 557.1L758.617 517.051Z"></path><path fill="#D39974" d="M844.87 433.239C845.255 431.622 847.011 430.749 848.533 431.418L905.136 456.298C905.819 456.598 906.596 456.598 907.279 456.298L965.733 430.604C966.416 430.303 967.194 430.303 967.877 430.604L1026.33 456.298C1027.01 456.598 1027.79 456.598 1028.47 456.298L1083.1 432.288C1085.11 431.403 1087.27 433.203 1086.76 435.343L1035.03 652.59C1034.84 653.401 1034.28 654.075 1033.52 654.411L975.202 680.043C974.519 680.343 973.741 680.343 973.058 680.043L914.604 654.349C913.921 654.049 913.144 654.049 912.461 654.349L854.006 680.043C853.323 680.343 852.546 680.343 851.863 680.043L794.371 654.772C793.193 654.254 792.553 652.968 792.852 651.717L844.87 433.239Z"></path><path fill="#E6C9A7" d="M1035.03 652.59L1086.76 435.343C1087.27 433.203 1085.11 431.403 1083.1 432.288L1028.62 456.236C1027.85 456.572 1027.29 457.246 1027.1 458.057L975.371 675.303C974.861 677.444 977.019 679.244 979.034 678.359L1033.52 654.411C1034.28 654.075 1034.84 653.401 1035.03 652.59zM905.901 458.057C906.094 457.246 906.656 456.572 907.42 456.236L961.901 432.288C963.916 431.403 966.074 433.203 965.564 435.343L913.839 652.59C913.646 653.401 913.083 654.075 912.32 654.411L857.838 678.359C855.824 679.244 853.666 677.444 854.175 675.303L905.901 458.057z"></path><path fill="#F7ABA6" d="M802.52 501.233L860.935 490.071C867.926 488.735 874.498 494.383 874.087 501.373L873.577 510.042L867.128 546.449C865.96 553.041 860.991 558.256 854.365 559.843L822.791 567.408C819.64 568.163 816.265 567.078 814.095 564.613V564.613L803.487 566.359L793.154 542.248L784.83 516.173L791.72 513.327L802.52 501.233Z"></path><rect width="61.023" height="23.621" x="790.508" y="510.788" fill="#255340" rx="2.664" transform="rotate(68.817 790.508 510.788)"></rect><path fill="#BD4C00" d="M697.289 225.025C694.989 196.965 713.903 171.568 741.446 165.733L754.667 162.933C754.888 162.886 755.114 162.868 755.339 162.878L768.839 163.488C796.965 164.76 819.762 186.738 822.062 214.798L823.26 229.427C823.381 230.893 822.29 232.179 820.823 232.299L701.36 242.091C699.894 242.211 698.608 241.12 698.488 239.653L697.289 225.025Z"></path><path fill="#D56011" fill-rule="evenodd" d="M810.204 233.17C811.67 233.05 812.761 231.764 812.641 230.298L811.339 214.413C809.084 186.896 787.09 165.141 759.551 163.186L755.408 162.892C755.289 162.883 755.17 162.883 755.052 162.89C754.9 162.9 754.749 162.923 754.6 162.958L750.561 163.923C723.708 170.336 705.549 195.382 707.805 222.898L709.107 238.784C709.227 240.25 710.513 241.341 711.979 241.221L810.204 233.17ZM809.986 230.515L808.684 214.63C806.807 191.717 790.557 172.998 768.972 167.411C781.596 174.103 790.375 186.879 791.593 201.746L794.058 231.821L809.986 230.515ZM725.225 207.186C724.006 192.319 730.588 178.284 741.953 169.626C721.566 178.653 708.581 199.767 710.459 222.681L711.761 238.566L727.69 237.26L725.225 207.186ZM727.879 206.968L730.344 237.043L746.273 235.737L742.357 187.959C741.772 180.828 744.049 173.879 748.492 168.536C734.858 176.053 726.571 190.999 727.879 206.968ZM762.344 167.401C777.019 172.598 787.63 185.995 788.938 201.964L791.403 232.039L775.475 233.344L771.559 185.565C770.975 178.435 767.597 171.949 762.344 167.401ZM772.82 233.562L768.904 185.783C768.2 177.184 762.987 169.627 755.248 165.9C748.219 170.837 744.307 179.143 745.012 187.741L748.928 235.52L772.82 233.562Z" clip-rule="evenodd"></path><path fill="#241B14" d="M754.455 237.74L698.706 242.309L700.338 262.22C703.958 260.023 721.114 260.797 727.712 261.078C728.871 261.128 729.866 261.911 730.185 263.026L733.391 274.21L737.372 273.884C738.839 273.763 739.87 272.464 740.056 271.005C740.977 263.8 749.331 266.79 753.541 259.196C758.198 250.796 754.455 237.74 754.455 237.74Z"></path><rect width="130.518" height="21.309" x="694.963" y="229.252" fill="#9F4000" rx="2.664" transform="rotate(-4.685 694.963 229.252)"></rect><path fill="#F7ABA6" d="M735.451 268.695C738.077 284.516 730.984 285.097 722.235 285.814C713.486 286.531 707.129 279.873 706.408 271.076C705.687 262.279 710.875 254.674 719.624 253.957C728.373 253.24 734.73 259.898 735.451 268.695Z"></path><path fill="#CE5E56" fill-rule="evenodd" d="M716.54 263.859C717.074 263.353 717.916 263.375 718.422 263.909L726.196 272.111C726.702 272.645 726.68 273.488 726.146 273.994C725.612 274.5 724.769 274.477 724.263 273.944L716.489 265.741C715.983 265.208 716.006 264.365 716.54 263.859Z" clip-rule="evenodd"></path><rect width="15.982" height="10.655" x="703.362" y="233.91" fill="#FBBC91" rx="2.664" transform="rotate(-4.685 703.362 233.91)"></rect><path fill="#BD4C00" d="M759.154 164.503C759.184 164.246 759.112 164.132 759.09 163.864C758.91 161.665 756.981 160.028 754.782 160.209C752.583 160.389 750.946 162.318 751.126 164.517C751.148 164.784 751.196 165.043 751.267 165.292L759.154 164.503Z"></path><path stroke="#CE5E56" stroke-linecap="round" stroke-linejoin="round" stroke-width="2.664" d="M794.959 269.156L800.355 286.086L793.718 289.293"></path><path fill="#CE5E56" d="M784.346 303.684C784.346 302.92 784.987 302.314 785.749 302.356L807.062 303.54C807.767 303.579 808.318 304.162 808.318 304.868V304.868C808.318 305.631 807.677 306.238 806.915 306.196L785.602 305.011C784.897 304.972 784.346 304.39 784.346 303.684V303.684Z"></path><path stroke="#8E4B0C" stroke-linecap="round" stroke-width="3.995" d="M632.519 1271.84H736.4M837.619 1271.84H937.505"></path><path stroke="#000" stroke-linecap="round" stroke-width="3.995" d="M896.218 340.901L921.522 335.573"></path><path stroke="#000" stroke-linecap="round" stroke-width="2.664" d="M918.592 128.2C882.941 145.349 915.244 192.704 937.781 180.378C960.317 168.051 933.465 145.319 890.892 173.092C848.319 200.864 919.998 184.822 921.918 167.961C923.839 151.1 871.539 124.961 881.569 152.236C891.6 179.511 886.514 199.231 906.782 191.777C927.05 184.324 951.598 136.255 932.287 143.357C912.976 150.459 875.495 165.589 867.878 152.235"></path></svg>